<?xml version="1.0" encoding="utf-8"?>
<!-- Generator: Adobe Illustrator 16.0.0, SVG Export Plug-In . SVG Version: 6.00 Build 0)  -->
<!DOCTYPE svg PUBLIC "-//W3C//DTD SVG 1.1//EN" "http://www.w3.org/Graphics/SVG/1.1/DTD/svg11.dtd">
<svg version="1.1" id="Capa_1" xmlns="http://www.w3.org/2000/svg" xmlns:xlink="http://www.w3.org/1999/xlink" x="0px" y="0px"
	 width="2409.451px" height="1530.71px" viewBox="0 0 2409.451 1530.71" enable-background="new 0 0 2409.451 1530.71"
	 xml:space="preserve">
<path fill="#D3D3D3" d="M1829.052,241.37L921.232,2.47c-31.854-9.556-63.706,9.556-73.262,41.41L538.992,1212.896
	c-9.557,31.854,9.556,63.705,41.41,73.262l907.82,242.086c31.854,9.557,63.705-9.557,73.262-41.41l308.979-1169.019
	C1880.018,282.777,1860.906,250.926,1829.052,241.37z"/>
<path fill="#EDEDED" d="M1676.156,98.03h-633.883L675.962,467.527v901.451c0,31.854,25.481,60.521,60.522,60.521h939.672
	c31.854,0,60.521-25.48,60.521-60.521V158.549C1733.492,126.698,1708.01,98.03,1676.156,98.03z"/>
<g>
	<rect x="822.485" y="1196.97" fill="#CED6E0" width="761.294" height="82.816"/>
	<rect x="822.485" y="980.365" fill="#CED6E0" width="761.294" height="82.818"/>
	<rect x="822.485" y="763.764" fill="#CED6E0" width="761.294" height="82.818"/>
	<rect x="822.485" y="550.345" fill="#CED6E0" width="761.294" height="82.818"/>
	<rect x="1153.761" y="333.743" fill="#CED6E0" width="430.021" height="82.817"/>
</g>
<polygon fill="#FF5050" points="1042.273,98.03 675.962,467.527 1042.273,467.527 "/>
</svg>
