<?xml version="1.0" encoding="utf-8"?>
<!-- Generator: Adobe Illustrator 16.0.0, SVG Export Plug-In . SVG Version: 6.00 Build 0)  -->
<!DOCTYPE svg PUBLIC "-//W3C//DTD SVG 1.1//EN" "http://www.w3.org/Graphics/SVG/1.1/DTD/svg11.dtd">
<svg version="1.1" id="Layer_1" xmlns="http://www.w3.org/2000/svg" xmlns:xlink="http://www.w3.org/1999/xlink" x="0px" y="0px"
	 width="2409.451px" height="1530.71px" viewBox="0 0 2409.451 1530.71" enable-background="new 0 0 2409.451 1530.71"
	 xml:space="preserve">
<path fill="#FF2222" d="M1888.165,303.577h-685.446l-6.146-39.867c-6.858-44.526-49.34-80.958-94.395-80.958H772.467
	c-45.056,0-87.537,36.431-94.392,80.958l-6.146,39.867h-23.365c-45.051,0-81.915,36.864-81.915,81.915v880.55
	c0,45.055,36.864,81.914,81.915,81.914h1239.597c45.051,0,81.919-36.859,81.919-81.914V385.496
	C1970.089,340.441,1933.216,303.577,1888.165,303.577z"/>
<rect x="642.564" y="391.863" fill="#FFFFFF" width="1228.748" height="832.867"/>
<path fill="#FF5050" d="M1843.83,562.623c-7.153-44.484-49.869-80.878-94.92-80.878H509.31c-45.056,0-76.069,36.394-68.916,80.878
	l113.255,704.46c7.153,44.484,49.868,80.879,94.92,80.879h1239.596c45.051,0,76.065-36.395,68.915-80.879L1843.83,562.623z"/>
</svg>
