<?xml version="1.0" encoding="utf-8"?>
<!-- Generator: Adobe Illustrator 16.0.0, SVG Export Plug-In . SVG Version: 6.00 Build 0)  -->
<!DOCTYPE svg PUBLIC "-//W3C//DTD SVG 1.1//EN" "http://www.w3.org/Graphics/SVG/1.1/DTD/svg11.dtd">
<svg version="1.1" id="Capa_1" xmlns="http://www.w3.org/2000/svg" xmlns:xlink="http://www.w3.org/1999/xlink" x="0px" y="0px"
	 width="2409.451px" height="1530.71px" viewBox="0 0 2409.451 1530.71" enable-background="new 0 0 2409.451 1530.71"
	 xml:space="preserve">
<path d="M1565.676,1246.535c-3.53,10.74-13.53,17.551-24.25,17.551c-2.65,0-5.33-0.4-7.99-1.271
	c-13.42-4.42-20.69-18.86-16.28-32.229c1.84-5.591,2.45-11.261,2.271-16.82c-72.3,61.68-162.771,95.55-258.37,95.55
	c-1.82,0-3.63,0-5.41-0.03c-99.26-1.27-192.28-38.97-264.79-105.83c-1.81,3.061-3.37,6.28-4.51,9.75
	c-3.53,10.74-13.53,17.551-24.25,17.551c-2.65,0-5.33-0.4-7.99-1.271c-13.42-4.42-20.7-18.86-16.28-32.24
	c8.4-25.46,26.18-46.109,50.1-58.18c23.86-12.13,51.04-14.12,76.54-5.69c13.39,4.41,20.67,18.86,16.25,32.23
	c-4.41,13.35-18.81,20.59-32.26,16.26c-2.24-0.77-4.54-1.149-6.81-1.56c60.61,49.38,135.39,76.92,214.63,77.97
	c86.54,1.71,169.72-29.96,234.75-87.52c-1.74-0.811-3.399-1.73-5.26-2.341c-13.42-4.42-20.7-18.84-16.28-32.239
	c4.41-13.4,18.83-20.7,32.23-16.28c25.47,8.4,46.17,26.21,58.24,50.1C1572.025,1193.885,1574.046,1221.085,1565.676,1246.535z"/>
<path d="M1494.105,663.505c0,6.63-2.8,13.27-7.399,18.12c-4.851,4.59-11.23,7.4-18.12,7.4c-6.63,0-13.271-2.81-18.12-7.4
	c-4.62-4.85-7.4-11.49-7.4-18.12c0-6.64,2.78-13.3,7.4-18.13c9.7-9.44,26.55-9.44,36.24,0
	C1491.305,650.205,1494.105,656.865,1494.105,663.505z"/>
<path d="M1455.825,565.675c-77.38,0-140.359,62.99-140.359,140.37c0,77.38,62.979,140.36,140.359,140.36
	c77.381,0,140.37-62.979,140.37-140.36C1596.195,628.665,1533.206,565.675,1455.825,565.675z M1455.825,795.365
	c-49.25,0-89.319-40.07-89.319-89.32c0-49.26,40.09-89.33,89.319-89.33c49.261,0,89.33,40.07,89.33,89.33
	C1545.155,755.295,1505.086,795.365,1455.825,795.365z"/>
<path d="M1034.725,740.065c0,6.89-2.83,13.27-7.65,18.12c-4.34,4.59-10.98,7.4-17.87,7.4s-13.27-2.81-18.12-7.4
	c-4.62-4.85-7.4-11.49-7.4-18.12c0-6.92,2.55-13.3,7.4-18.12c9.7-9.44,26.8-9.44,36.24,0
	C1031.926,726.765,1034.725,733.145,1034.725,740.065z"/>
<path d="M962.635,586.935c-77.38,0-140.37,62.99-140.37,140.37c0,77.38,62.99,140.359,140.37,140.359
	c77.38,0,140.36-62.979,140.36-140.359C1102.995,649.925,1040.015,586.935,962.635,586.935z M962.635,816.625
	c-49.26,0-89.33-40.069-89.33-89.319c0-49.26,40.07-89.33,89.33-89.33c49.25,0,89.32,40.07,89.32,89.33
	C1051.955,776.555,1011.885,816.625,962.635,816.625z"/>
<path d="M1378.145,1061.885c-13.86,30.22-45.25,50.92-88.36,58.239c-11.3,1.91-22.81,2.83-34.25,2.83
	c-48.949,0-97-16.89-124.359-45.369l-2.78-3.19c-8.71-10.7-7.97-27.11,2.42-36.14c10.44-9.04,25.5-8.881,34.86,1.22
	c0.36,0.36,1.94,2.22,2.3,2.66c22.02,22.989,70.74,35.04,113.29,27.64c25.57-4.32,43.97-14.96,50.5-29.17
	c11.49-25.07,12.28-47.35,2.4-68.15c-18.171-38.33-71.021-67.17-115.33-78.729c-16.53-4.34-48.92-2.09-57.57,1.58
	c-12.99,5.54-27.97-0.51-33.49-13.47c-5.53-12.99,0.51-27.971,13.48-33.49c20.67-8.8,64.64-10.74,90.451-4
	c54.18,14.16,121.63,49.479,148.55,106.27C1396.515,984.885,1395.775,1023.375,1378.145,1061.885z"/>
<path d="M1621.716,995.275c0,14.1-11.431,25.521-25.521,25.521c-14.1,0-25.52-11.421-25.52-25.521c0-14.09,11.42-25.52,25.52-25.52
	C1610.285,969.755,1621.716,981.185,1621.716,995.275z"/>
<path d="M1519.635,918.715c0,14.09-11.43,25.52-25.53,25.52c-14.09,0-25.52-11.43-25.52-25.52c0-14.101,11.43-25.521,25.52-25.521
	C1508.206,893.195,1519.635,904.615,1519.635,918.715z"/>
<path d="M1647.235,893.195c0,14.09-11.42,25.521-25.52,25.521c-14.09,0-25.521-11.431-25.521-25.521
	c0-14.1,11.431-25.53,25.521-25.53C1635.815,867.665,1647.235,879.095,1647.235,893.195z"/>
<path d="M840.615,890.535c0,14.101-11.43,25.521-25.52,25.521c-14.1,0-25.52-11.42-25.52-25.521c0-14.09,11.42-25.52,25.52-25.52
	C829.185,865.015,840.615,876.445,840.615,890.535z"/>
<path d="M952.955,951.045c0,14.1-11.42,25.52-25.52,25.52c-14.09,0-25.52-11.42-25.52-25.52c0-14.091,11.43-25.521,25.52-25.521
	C941.535,925.525,952.955,936.955,952.955,951.045z"/>
<path d="M830.555,995.275c0,14.1-11.42,25.521-25.52,25.521c-14.09,0-25.52-11.421-25.52-25.521c0-14.09,11.43-25.52,25.52-25.52
	C819.135,969.755,830.555,981.185,830.555,995.275z"/>
<path d="M1875.445,480.845c-14.37-104.15-59.279-194.06-123.14-246.74c-16.43-13.53-28.45-34.84-35.78-63.27
	c-21.08-81.87-98.18-139.11-196.359-145.85c-54.561-3.85-101.931,13.22-153.841,33.97c-1.81,0.74-3.93,0.69-7.069-1.28
	c-10.62-28.22-34.71-47.65-67.83-54.69c-8.641-1.81-17.8-2.79-27.391-2.98c-2.449-0.05-4.93-0.05-7.43,0
	c-74.94,1.58-173.46,48.61-254.93,122.73c0.16-22.74,4.88-43.06,17.74-49.46l43.03-21.52l-41.96-23.53
	c-44.35-24.93-151.24-51.99-238.21,24.12c-31.62,27.66-54.57,66.3-66.33,111.71c-2.43,9.28-4.88,19.26-7.07,29.06
	c-0.97,4.27-4.47,5.57-5.9,5.9c-2.68,0.69-5-0.03-7.6-3.09c-13.68-16.69-34.4-24.96-55.41-21.92
	c-20.29,2.86-37.28,15.85-45.45,34.76c-50.23,116.55-144.2,413.21,56.14,667.1v425.13c0,70.36,57.25,127.601,127.61,127.601h102.09
	v43.26c0,32.44,26.38,58.83,58.82,58.83h596.939c32.44,0,58.86-26.39,58.86-58.83v-43.26h51.04c70.36,0,127.6-57.24,127.6-127.601
	V877.215C1803.506,843.575,1906.916,708.495,1875.445,480.845z M1536.095,1479.665h-596.94c-4.29,0-7.79-3.489-7.79-7.779v-43.261
	h612.51v43.261h0.029C1543.905,1476.175,1540.405,1479.665,1536.095,1479.665z M1722.555,1301.015c0,42.22-34.36,76.57-76.57,76.57
	h-867.72c-42.21,0-76.56-34.351-76.56-76.57v-736.28c31.39-13.58,70.61-36.29,107.08-73.63c35.91,18.63,122.69,55.07,273.26,69.65
	l14.34,1.27l8.6-11.43c3.98-5.28,99.41-127.27,345.82-93.92c13.16,22.71,45.86,68.19,104.939,87.51
	c49.82,16.29,105.78,10.29,166.811-17.71V1301.015z M1773.595,789.265v-349.51l-38.46,22.59c-62.73,36.85-117.53,48.08-162.96,33.53
	c-7.07-2.27-13.62-5.1-19.7-8.32c-4.08-2.17-7.65-4.69-11.3-7.14c-1.79-1.2-3.83-2.22-5.521-3.47c-4.18-3.12-7.859-6.41-11.43-9.7
	c-0.79-0.74-1.79-1.43-2.55-2.17c-3.86-3.73-7.22-7.45-10.34-11.08c-0.28-0.33-0.66-0.69-0.94-1.02
	c-12.74-15.21-18.86-28.15-19.5-29.5c-0.03-0.03-0.15-0.28-0.15-0.28l-5.619-12.97l-13.931-2.14
	c-245.01-37.75-363.99,64.75-397.37,100.55c-177.75-19.27-254.85-70.36-255.54-70.79l-18.89-13.1l-14.98,17.43
	c-9.95,11.57-20.29,21.7-30.65,30.58c-31.16,26.67-62.83,42.08-86.44,50.79l-16.67,6.15v256.87
	c-125.1-208.97-62.19-434.81-9.28-557.59c0.43-0.94,1.63-3.83,5.69-4.41c1.3-0.11,5.46-0.39,10.05,5.15
	c14.11,16.87,36.29,24.12,57.88,18.89c22-5.34,38.77-22.31,43.7-44.28c2.09-9.24,4.41-18.66,6.68-27.46
	c9.19-35.45,26.67-65.24,50.51-86.09c53.49-46.8,112.67-40.73,148.05-30.49c-12.76,24.19-16.54,58.16-10.7,99.78
	c1.89,13.76,11.23,24.99,24.38,29.38c13.34,4.44,27.87,0.94,37.79-9.11c97.14-98.64,209.3-139.3,265.37-127.35
	c24.021,5.08,29.05,18.37,30.65,22.71c5.03,13.4,15.22,24.04,28.64,29.96c14.24,6.28,30.7,6.51,45.17,0.74
	c47.65-19.06,87.721-33.46,131.41-30.42c60.38,4.11,131.59,34.56,150.42,107.62c10.11,39.1,27.851,69.37,52.75,89.92
	c25.601,21.1,87.08,84.24,105.08,214.32C1844.485,629.605,1807.055,730.725,1773.595,789.265z"/>
<path d="M830.555,995.275c0,14.1-11.42,25.521-25.52,25.521c-14.09,0-25.52-11.421-25.52-25.521c0-14.09,11.43-25.52,25.52-25.52
	C819.135,969.755,830.555,981.185,830.555,995.275z"/>
<path d="M840.615,890.535c0,14.101-11.43,25.521-25.52,25.521c-14.1,0-25.52-11.42-25.52-25.521c0-14.09,11.42-25.52,25.52-25.52
	C829.185,865.015,840.615,876.445,840.615,890.535z"/>
<path d="M952.955,951.045c0,14.1-11.42,25.52-25.52,25.52c-14.09,0-25.52-11.42-25.52-25.52c0-14.091,11.43-25.521,25.52-25.521
	C941.535,925.525,952.955,936.955,952.955,951.045z"/>
<path d="M1027.325,721.945c4.6,4.82,7.4,11.2,7.4,18.12c0,6.89-2.83,13.27-7.65,18.12c-4.34,4.59-10.98,7.4-17.87,7.4
	s-13.27-2.81-18.12-7.4c-4.62-4.85-7.4-11.49-7.4-18.12c0-6.92,2.55-13.3,7.4-18.12
	C1000.785,712.505,1017.885,712.505,1027.325,721.945z"/>
<path d="M962.635,586.935c-77.38,0-140.37,62.99-140.37,140.37c0,77.38,62.99,140.359,140.37,140.359
	c77.38,0,140.36-62.979,140.36-140.359C1102.995,649.925,1040.015,586.935,962.635,586.935z M962.635,816.625
	c-49.26,0-89.33-40.069-89.33-89.319c0-49.26,40.07-89.33,89.33-89.33c49.25,0,89.32,40.07,89.32,89.33
	C1051.955,776.555,1011.885,816.625,962.635,816.625z"/>
<path d="M1378.145,1061.885c-13.86,30.22-45.25,50.92-88.36,58.239c-11.3,1.91-22.81,2.83-34.25,2.83
	c-48.949,0-97-16.89-124.359-45.369l-2.78-3.19c-8.71-10.7-7.97-27.11,2.42-36.14c10.44-9.04,25.5-8.881,34.86,1.22
	c0.36,0.36,1.94,2.22,2.3,2.66c22.02,22.989,70.74,35.04,113.29,27.64c25.57-4.32,43.97-14.96,50.5-29.17
	c11.49-25.07,12.28-47.35,2.4-68.15c-18.171-38.33-71.021-67.17-115.33-78.729c-16.53-4.34-48.92-2.09-57.57,1.58
	c-12.99,5.54-27.97-0.51-33.49-13.47c-5.53-12.99,0.51-27.971,13.48-33.49c20.67-8.8,64.64-10.74,90.451-4
	c54.18,14.16,121.63,49.479,148.55,106.27C1396.515,984.885,1395.775,1023.375,1378.145,1061.885z"/>
<path d="M1519.635,918.715c0,14.09-11.43,25.52-25.53,25.52c-14.09,0-25.52-11.43-25.52-25.52c0-14.101,11.43-25.521,25.52-25.521
	C1508.206,893.195,1519.635,904.615,1519.635,918.715z"/>
<path d="M1486.706,645.375c4.6,4.83,7.399,11.49,7.399,18.13c0,6.63-2.8,13.27-7.399,18.12c-4.851,4.59-11.23,7.4-18.12,7.4
	c-6.63,0-13.271-2.81-18.12-7.4c-4.62-4.85-7.4-11.49-7.4-18.12c0-6.64,2.78-13.3,7.4-18.13
	C1460.166,635.935,1477.015,635.935,1486.706,645.375z"/>
<path d="M1455.825,565.675c-77.38,0-140.359,62.99-140.359,140.37c0,77.38,62.979,140.36,140.359,140.36
	c77.381,0,140.37-62.979,140.37-140.36C1596.195,628.665,1533.206,565.675,1455.825,565.675z M1455.825,795.365
	c-49.25,0-89.319-40.07-89.319-89.32c0-49.26,40.09-89.33,89.319-89.33c49.261,0,89.33,40.07,89.33,89.33
	C1545.155,755.295,1505.086,795.365,1455.825,795.365z"/>
<path d="M1565.676,1246.535c-3.53,10.74-13.53,17.551-24.25,17.551c-2.65,0-5.33-0.4-7.99-1.271
	c-13.42-4.42-20.69-18.86-16.28-32.229c1.84-5.591,2.45-11.261,2.271-16.82c-72.3,61.68-162.771,95.55-258.37,95.55
	c-1.82,0-3.63,0-5.41-0.03c-99.26-1.27-192.28-38.97-264.79-105.83c-1.81,3.061-3.37,6.28-4.51,9.75
	c-3.53,10.74-13.53,17.551-24.25,17.551c-2.65,0-5.33-0.4-7.99-1.271c-13.42-4.42-20.7-18.86-16.28-32.24
	c8.4-25.46,26.18-46.109,50.1-58.18c23.86-12.13,51.04-14.12,76.54-5.69c13.39,4.41,20.67,18.86,16.25,32.23
	c-4.41,13.35-18.81,20.59-32.26,16.26c-2.24-0.77-4.54-1.149-6.81-1.56c60.61,49.38,135.39,76.92,214.63,77.97
	c86.54,1.71,169.72-29.96,234.75-87.52c-1.74-0.811-3.399-1.73-5.26-2.341c-13.42-4.42-20.7-18.84-16.28-32.239
	c4.41-13.4,18.83-20.7,32.23-16.28c25.47,8.4,46.17,26.21,58.24,50.1C1572.025,1193.885,1574.046,1221.085,1565.676,1246.535z"/>
<path d="M1621.716,995.275c0,14.1-11.431,25.521-25.521,25.521c-14.1,0-25.52-11.421-25.52-25.521c0-14.09,11.42-25.52,25.52-25.52
	C1610.285,969.755,1621.716,981.185,1621.716,995.275z"/>
<path d="M1647.235,893.195c0,14.09-11.42,25.521-25.52,25.521c-14.09,0-25.521-11.431-25.521-25.521
	c0-14.1,11.431-25.53,25.521-25.53C1635.815,867.665,1647.235,879.095,1647.235,893.195z"/>
<path d="M1875.445,480.845c-14.37-104.15-59.279-194.06-123.14-246.74c-16.43-13.53-28.45-34.84-35.78-63.27
	c-21.08-81.87-98.18-139.11-196.359-145.85c-54.561-3.85-101.931,13.22-153.841,33.97c-1.81,0.74-3.93,0.69-7.069-1.28
	c-10.62-28.22-34.71-47.65-67.83-54.69c-8.641-1.81-17.8-2.79-27.391-2.98h-7.43c-74.94,1.58-173.46,48.61-254.93,122.73
	c0.16-22.74,4.88-43.06,17.74-49.46l43.03-21.52l-41.96-23.53c-44.35-24.93-151.24-51.99-238.21,24.12
	c-31.62,27.66-54.57,66.3-66.33,111.71c-2.43,9.28-4.88,19.26-7.07,29.06c-0.97,4.27-4.47,5.57-5.9,5.9c-2.68,0.69-5-0.03-7.6-3.09
	c-13.68-16.69-34.4-24.96-55.41-21.92c-20.29,2.86-37.28,15.85-45.45,34.76c-50.23,116.55-144.2,413.21,56.14,667.1v425.13
	c0,70.36,57.25,127.601,127.61,127.601h102.09v43.26c0,32.44,26.38,58.83,58.82,58.83h596.939c32.44,0,58.86-26.39,58.86-58.83
	v-43.26h51.04c70.36,0,127.6-57.24,127.6-127.601V877.215C1803.506,843.575,1906.916,708.495,1875.445,480.845z M1536.095,1479.665
	h-596.94c-4.29,0-7.79-3.489-7.79-7.779v-43.261h612.51v43.261h0.029C1543.905,1476.175,1540.405,1479.665,1536.095,1479.665z
	 M1722.555,1301.015c0,42.22-34.36,76.57-76.57,76.57h-867.72c-42.21,0-76.56-34.351-76.56-76.57v-736.28
	c31.39-13.58,70.61-36.29,107.08-73.63c35.91,18.63,122.69,55.07,273.26,69.65l14.34,1.27l8.6-11.43
	c3.98-5.28,99.41-127.27,345.82-93.92c13.16,22.71,45.86,68.19,104.939,87.51c49.82,16.29,105.78,10.29,166.811-17.71V1301.015z
	 M1773.595,789.265v-349.51l-38.46,22.59c-62.73,36.85-117.53,48.08-162.96,33.53c-7.07-2.27-13.62-5.1-19.7-8.32
	c-4.08-2.17-7.65-4.69-11.3-7.14c-1.79-1.2-3.83-2.22-5.521-3.47c-4.18-3.12-7.859-6.41-11.43-9.7c-0.79-0.74-1.79-1.43-2.55-2.17
	c-3.86-3.73-7.22-7.45-10.34-11.08c-0.28-0.33-0.66-0.69-0.94-1.02c-12.74-15.21-18.86-28.15-19.5-29.5
	c-0.03-0.03-0.15-0.28-0.15-0.28l-5.619-12.97l-13.931-2.14c-245.01-37.75-363.99,64.75-397.37,100.55
	c-177.75-19.27-254.85-70.36-255.54-70.79l-18.89-13.1l-14.98,17.43c-9.95,11.57-20.29,21.7-30.65,30.58
	c-31.16,26.67-62.83,42.08-86.44,50.79l-16.67,6.15v256.87c-125.1-208.97-62.19-434.81-9.28-557.59c0.43-0.94,1.63-3.83,5.69-4.41
	c1.3-0.11,5.46-0.39,10.05,5.15c14.11,16.87,36.29,24.12,57.88,18.89c22-5.34,38.77-22.31,43.7-44.28
	c2.09-9.24,4.41-18.66,6.68-27.46c9.19-35.45,26.67-65.24,50.51-86.09c53.49-46.8,112.67-40.73,148.05-30.49
	c-12.76,24.19-16.54,58.16-10.7,99.78c1.89,13.76,11.23,24.99,24.38,29.38c13.34,4.44,27.87,0.94,37.79-9.11
	c97.14-98.64,209.3-139.3,265.37-127.35c24.021,5.08,29.05,18.37,30.65,22.71c5.03,13.4,15.22,24.04,28.64,29.96
	c14.24,6.28,30.7,6.51,45.17,0.74c47.65-19.06,87.721-33.46,131.41-30.42c60.38,4.11,131.59,34.56,150.42,107.62
	c10.11,39.1,27.851,69.37,52.75,89.92c25.601,21.1,87.08,84.24,105.08,214.32C1844.485,629.605,1807.055,730.725,1773.595,789.265z"
	/>
<path fill="#EAB420" d="M1555.745,544.185c-59.079-19.32-91.779-64.8-104.939-87.51c-246.41-33.35-341.84,88.64-345.82,93.92
	l-8.6,11.43l-14.34-1.27c-150.57-14.58-237.35-51.02-273.26-69.65c-36.47,37.34-75.69,60.05-107.08,73.63v736.28
	c0,42.22,34.35,76.57,76.56,76.57h867.72c42.21,0,76.57-34.351,76.57-76.57v-774.54
	C1661.525,554.475,1605.565,560.475,1555.745,544.185z M1455.825,565.675c77.381,0,140.37,62.99,140.37,140.37
	c0,77.38-62.989,140.36-140.37,140.36c-77.38,0-140.359-62.979-140.359-140.36C1315.466,628.665,1378.445,565.675,1455.825,565.675z
	 M1519.635,918.715c0,14.09-11.43,25.52-25.53,25.52c-14.09,0-25.52-11.43-25.52-25.52c0-14.101,11.43-25.521,25.52-25.521
	C1508.206,893.195,1519.635,904.615,1519.635,918.715z M1334.166,972.455c-18.171-38.33-71.021-67.17-115.33-78.729
	c-16.53-4.34-48.92-2.09-57.57,1.58c-12.99,5.54-27.97-0.51-33.49-13.47c-5.53-12.99,0.51-27.971,13.48-33.49
	c20.67-8.8,64.64-10.74,90.451-4c54.18,14.16,121.63,49.479,148.55,106.27c16.26,34.271,15.52,72.76-2.11,111.271
	c-13.86,30.22-45.25,50.92-88.36,58.239c-11.3,1.91-22.81,2.83-34.25,2.83c-48.949,0-97-16.89-124.359-45.369l-2.78-3.19
	c-8.71-10.7-7.97-27.11,2.42-36.14c10.44-9.04,25.5-8.881,34.86,1.22c0.36,0.36,1.94,2.22,2.3,2.66
	c22.02,22.989,70.74,35.04,113.29,27.64c25.57-4.32,43.97-14.96,50.5-29.17C1343.256,1015.535,1344.046,993.255,1334.166,972.455z
	 M805.035,1020.795c-14.09,0-25.52-11.421-25.52-25.521c0-14.09,11.43-25.52,25.52-25.52c14.1,0,25.52,11.43,25.52,25.52
	C830.555,1009.375,819.135,1020.795,805.035,1020.795z M815.095,916.055c-14.1,0-25.52-11.42-25.52-25.521
	c0-14.09,11.42-25.52,25.52-25.52c14.09,0,25.52,11.43,25.52,25.52C840.615,904.635,829.185,916.055,815.095,916.055z
	 M822.265,727.305c0-77.38,62.99-140.37,140.37-140.37c77.38,0,140.36,62.99,140.36,140.37c0,77.38-62.98,140.359-140.36,140.359
	C885.255,867.665,822.265,804.685,822.265,727.305z M901.915,951.045c0-14.091,11.43-25.521,25.52-25.521
	c14.1,0,25.52,11.43,25.52,25.521c0,14.1-11.42,25.52-25.52,25.52C913.345,976.565,901.915,965.145,901.915,951.045z
	 M1565.676,1246.535c-3.53,10.74-13.53,17.551-24.25,17.551c-2.65,0-5.33-0.4-7.99-1.271c-13.42-4.42-20.69-18.86-16.28-32.229
	c1.84-5.591,2.45-11.261,2.271-16.82c-72.3,61.68-162.771,95.55-258.37,95.55c-1.82,0-3.63,0-5.41-0.03
	c-99.26-1.27-192.28-38.97-264.79-105.83c-1.81,3.061-3.37,6.28-4.51,9.75c-3.53,10.74-13.53,17.551-24.25,17.551
	c-2.65,0-5.33-0.4-7.99-1.271c-13.42-4.42-20.7-18.86-16.28-32.24c8.4-25.46,26.18-46.109,50.1-58.18
	c23.86-12.13,51.04-14.12,76.54-5.69c13.39,4.41,20.67,18.86,16.25,32.23c-4.41,13.35-18.81,20.59-32.26,16.26
	c-2.24-0.77-4.54-1.149-6.81-1.56c60.61,49.38,135.39,76.92,214.63,77.97c86.54,1.71,169.72-29.96,234.75-87.52
	c-1.74-0.811-3.399-1.73-5.26-2.341c-13.42-4.42-20.7-18.84-16.28-32.239c4.41-13.4,18.83-20.7,32.23-16.28
	c25.47,8.4,46.17,26.21,58.24,50.1C1572.025,1193.885,1574.046,1221.085,1565.676,1246.535z M1596.195,1020.795
	c-14.1,0-25.52-11.421-25.52-25.521c0-14.09,11.42-25.52,25.52-25.52c14.09,0,25.521,11.43,25.521,25.52
	C1621.716,1009.375,1610.285,1020.795,1596.195,1020.795z M1621.716,918.715c-14.09,0-25.521-11.431-25.521-25.521
	c0-14.1,11.431-25.53,25.521-25.53c14.1,0,25.52,11.431,25.52,25.53C1647.235,907.285,1635.815,918.715,1621.716,918.715z"/>
<path fill="#3C3010" d="M1773.595,789.265v-349.51l-38.46,22.59c-62.73,36.85-117.53,48.08-162.96,33.53
	c-7.07-2.27-13.62-5.1-19.7-8.32c-4.08-2.17-7.65-4.69-11.3-7.14c-1.79-1.2-3.83-2.22-5.521-3.47c-4.18-3.12-7.859-6.41-11.43-9.7
	c-0.79-0.74-1.79-1.43-2.55-2.17c-3.86-3.73-7.22-7.45-10.34-11.08c-0.28-0.33-0.66-0.69-0.94-1.02
	c-12.74-15.21-18.86-28.15-19.5-29.5c-0.03-0.03-0.15-0.28-0.15-0.28l-5.619-12.97l-13.931-2.14
	c-245.01-37.75-363.99,64.75-397.37,100.55c-177.75-19.27-254.85-70.36-255.54-70.79l-18.89-13.1l-14.98,17.43
	c-9.95,11.57-20.29,21.7-30.65,30.58c-31.16,26.67-62.83,42.08-86.44,50.79l-16.67,6.15v256.87
	c-125.1-208.97-62.19-434.81-9.28-557.59c0.43-0.94,1.63-3.83,5.69-4.41c1.3-0.11,5.46-0.39,10.05,5.15
	c14.11,16.87,36.29,24.12,57.88,18.89c22-5.34,38.77-22.31,43.7-44.28c2.09-9.24,4.41-18.66,6.68-27.46
	c9.19-35.45,26.67-65.24,50.51-86.09c53.49-46.8,112.67-40.73,148.05-30.49c-12.76,24.19-16.54,58.16-10.7,99.78
	c1.89,13.76,11.23,24.99,24.38,29.38c13.34,4.44,27.87,0.94,37.79-9.11c97.14-98.64,209.3-139.3,265.37-127.35
	c24.021,5.08,29.05,18.37,30.65,22.71c5.03,13.4,15.22,24.04,28.64,29.96c14.24,6.28,30.7,6.51,45.17,0.74
	c47.65-19.06,87.721-33.46,131.41-30.42c60.38,4.11,131.59,34.56,150.42,107.62c10.11,39.1,27.851,69.37,52.75,89.92
	c25.601,21.1,87.08,84.24,105.08,214.32C1844.485,629.605,1807.055,730.725,1773.595,789.265z"/>
<path fill="none" d="M1942.115,12.005v1506.68c0,6.63-5.37,12-12,12h-394c32.44,0,58.86-26.39,58.86-58.83v-43.26h51.04
	c70.36,0,127.6-57.24,127.6-127.601V877.215c29.891-33.641,133.301-168.72,101.83-396.37c-14.37-104.15-59.279-194.06-123.14-246.74
	c-16.43-13.53-28.45-34.84-35.78-63.27c-21.08-81.87-98.18-139.11-196.359-145.85c-54.561-3.85-101.931,13.22-153.841,33.97
	c-1.81,0.74-3.93,0.69-7.069-1.28c-10.62-28.22-34.71-47.65-67.83-54.69c-8.641-1.81-17.8-2.79-27.391-2.98h666.08
	C1936.745,0.005,1942.115,5.375,1942.115,12.005z"/>
<path fill="none" d="M1019.415,73.275l43.03-21.52l-41.96-23.53c-44.35-24.93-151.24-51.99-238.21,24.12
	c-31.62,27.66-54.57,66.3-66.33,111.71c-2.43,9.28-4.88,19.26-7.07,29.06c-0.97,4.27-4.47,5.57-5.9,5.9c-2.68,0.69-5-0.03-7.6-3.09
	c-13.68-16.69-34.4-24.96-55.41-21.92c-20.29,2.86-37.28,15.85-45.45,34.76c-50.23,116.55-144.2,413.21,56.14,667.1v425.13
	c0,70.36,57.25,127.601,127.61,127.601h102.09v43.26c0,32.44,26.38,58.83,58.82,58.83h-524.21c-6.63,0-12-5.37-12-12V12.005
	c0-6.63,5.37-12,12-12h841.64c-74.94,1.58-173.46,48.61-254.93,122.73C1001.835,99.995,1006.555,79.675,1019.415,73.275z"/>
<path fill="#EAB420" d="M1543.905,1471.885c0,4.29-3.5,7.779-7.81,7.779h-596.94c-4.29,0-7.79-3.489-7.79-7.779v-43.261h612.51
	v43.261H1543.905z"/>
<path fill="none" d="M1455.825,616.715c-49.229,0-89.319,40.07-89.319,89.33c0,49.25,40.069,89.32,89.319,89.32
	c49.261,0,89.33-40.07,89.33-89.32C1545.155,656.785,1505.086,616.715,1455.825,616.715z M1486.706,681.625
	c-4.851,4.59-11.23,7.4-18.12,7.4c-6.63,0-13.271-2.81-18.12-7.4c-4.62-4.85-7.4-11.49-7.4-18.12c0-6.64,2.78-13.3,7.4-18.13
	c9.7-9.44,26.55-9.44,36.24,0c4.6,4.83,7.399,11.49,7.399,18.13C1494.105,670.135,1491.305,676.775,1486.706,681.625z"/>
<path fill="none" d="M962.635,637.975c-49.26,0-89.33,40.07-89.33,89.33c0,49.25,40.07,89.319,89.33,89.319
	c49.25,0,89.32-40.069,89.32-89.319C1051.955,678.045,1011.885,637.975,962.635,637.975z M1009.205,765.585
	c-6.89,0-13.27-2.81-18.12-7.4c-4.62-4.85-7.4-11.49-7.4-18.12c0-6.92,2.55-13.3,7.4-18.12c9.7-9.44,26.8-9.44,36.24,0
	c4.6,4.82,7.4,11.2,7.4,18.12c0,6.89-2.83,13.27-7.65,18.12C1022.735,762.775,1016.095,765.585,1009.205,765.585z"/>
</svg>
