<?xml version="1.0" encoding="utf-8"?>
<!-- Generator: Adobe Illustrator 16.0.0, SVG Export Plug-In . SVG Version: 6.00 Build 0)  -->
<!DOCTYPE svg PUBLIC "-//W3C//DTD SVG 1.1//EN" "http://www.w3.org/Graphics/SVG/1.1/DTD/svg11.dtd">
<svg version="1.1" id="Capa_1" xmlns="http://www.w3.org/2000/svg" xmlns:xlink="http://www.w3.org/1999/xlink" x="0px" y="0px"
	 width="128px" height="128px" viewBox="0 0 128 128" enable-background="new 0 0 128 128" xml:space="preserve">
<path display="none" d="M113.066,52.731h-2.867l-1.576-3.151c-7.08-16.258,2.111-45.135,2.205-45.425
	c0.212-0.648,0.1-1.361-0.305-1.911c-0.4-0.551-1.041-0.877-1.725-0.877H19.2c-0.747,0-1.438,0.391-1.824,1.028
	s-0.41,1.432-0.066,2.091C25.943,21,26.504,33.224,19.426,49.478l-1.625,3.251h-2.868c-3.528,0-6.4,2.871-6.4,6.4V61.1
	c0,3.528,2.872,6.399,6.4,6.399h2.134v42.667c0,5.882,4.785,10.667,10.667,10.667h6.4v3.612c0,2.715,2.206,4.921,4.919,4.921h49.896
	c2.711,0,4.918-2.206,4.918-4.921v-3.612h6.398c5.883,0,10.668-4.785,10.668-10.667V67.5h2.133c3.529,0,6.399-2.871,6.399-6.399
	v-1.969C119.467,55.603,116.596,52.731,113.066,52.731z M22.652,5.634h83.29c-1.157,4.137-3.172,12.335-3.938,21.333H28.478
	C28.171,20.087,26.255,13.196,22.652,5.634z M101.711,35.5H28.028c0.211-1.429,0.371-2.852,0.448-4.267h73.271
	C101.697,32.655,101.678,34.078,101.711,35.5z M23.29,51.285c1.745-4.011,3.053-7.816,3.93-11.518h74.756
	c0.398,4.12,1.248,8.101,2.783,11.621l0.588,1.18H22.649L23.29,51.285z M89.6,124.447c0,0.361-0.291,0.652-0.652,0.652H39.053
	c-0.36,0-0.653-0.291-0.653-0.652v-3.613h51.2V124.447z M106.666,97.189C99.328,96.074,96,89.234,96,82.434
	c0-5.881-4.785-10.666-10.666-10.666c-5.883,0-10.668,4.785-10.668,10.666c0,5.883,4.785,10.668,10.668,10.668
	c2.959,0,5.639-1.217,7.572-3.168c2.162,6.459,7.177,10.797,13.76,11.566v8.667c0,3.528-2.871,6.399-6.398,6.399h-6.399H34.133h-6.4
	c-3.529,0-6.4-2.871-6.4-6.399V67.5h85.333V97.189z M91.732,82.434c0,3.529-2.871,6.4-6.398,6.4c-3.529,0-6.4-2.871-6.4-6.4
	c0-3.527,2.871-6.399,6.4-6.399C88.861,76.033,91.732,78.905,91.732,82.434z M115.2,61.101c0,1.178-0.956,2.133-2.134,2.133H108.8
	H19.2h-4.267c-1.177,0-2.133-0.956-2.133-2.133v-1.969c0-1.177,0.956-2.133,2.133-2.133h98.133c1.178,0,2.134,0.956,2.134,2.133
	V61.101z"/>
<path fill="#EAB420" d="M91.988,96.007c0,2.795-2.266,5.061-5.061,5.061H41.163c-2.795,0-5.061-2.266-5.061-5.061l0,0
	c0-2.795,2.266-5.061,5.061-5.061h45.765C89.723,90.946,91.988,93.212,91.988,96.007L91.988,96.007z"/>
<path fill="#EAB420" d="M93.672,22.382c0,2.844-2.306,5.15-5.15,5.15h-47.27c-2.844,0-5.15-2.306-5.15-5.15l0,0
	c0-2.844,2.306-5.15,5.15-5.15h47.27C91.366,17.232,93.672,19.538,93.672,22.382L93.672,22.382z"/>
<path fill="#EAB420" d="M110.833,79.613c0,6.947-5.493,12.58-12.27,12.58H31.547c-6.776,0-12.27-5.633-12.27-12.58V40.082
	c0-6.948,5.494-12.581,12.27-12.581h67.017c6.776,0,12.27,5.633,12.27,12.581V79.613z"/>
<circle cx="44.621" cy="51.413" r="6.709"/>
<path fill="none" stroke="#000000" stroke-width="4" stroke-miterlimit="10" d="M19.327,54.508v27.435c0,0-1.5,9.5,8.75,10.25h36.5"
	/>
<path fill="none" stroke="#000000" stroke-width="4" stroke-miterlimit="10" d="M109.648,54.295l0.13,27.434
	c0,0,1.545,9.493-8.701,10.292l-36.5,0.173"/>
<path fill="none" stroke="#000000" stroke-width="4" stroke-miterlimit="10" d="M19.327,65.215V37.782c0,0-1.5-9.5,8.75-10.25h36.5"
	/>
<path fill="none" stroke="#000000" stroke-width="4" stroke-miterlimit="10" d="M109.805,65.215V37.781c0,0,1.5-9.499-8.75-10.249
	h-36.5"/>
<path d="M36.405,92.192L36.405,92.192z"/>
<path fill="none" stroke="#000000" stroke-width="4" stroke-miterlimit="10" d="M36.405,92.565v5.667c0,0,0,2.916,3.083,2.833
	l49.75,0.002c0,0,2.5-0.501,2.75-3.168v-5.334"/>
<path fill="none" stroke="#000000" stroke-miterlimit="10" d="M28.655,101.067"/>
<path fill="none" stroke="#000000" stroke-width="4" stroke-miterlimit="10" d="M36.102,25.734v-5.667c0,0,0-2.916,3.083-2.833
	l49.75-0.002c0,0,2.5,0.501,2.75,3.168v5.334"/>
<circle fill="#FFFFFF" cx="44.621" cy="51.415" r="1.625"/>
<circle fill="none" stroke="#2E2D2C" stroke-width="3" stroke-miterlimit="10" cx="81.57" cy="51.414" r="15.875"/>
<circle cx="81.57" cy="51.413" r="6.709"/>
<circle fill="#FFFFFF" cx="81.57" cy="51.415" r="1.625"/>
<path fill="none" stroke="#2E2D2C" stroke-width="3" stroke-miterlimit="10" d="M93.693,61.684c0,0-3.136,15.974,18.014,13.317"/>
<path fill="#FFFFFF" stroke="#000000" stroke-width="2.8346" stroke-miterlimit="10" d="M45.57,73.244H82.52
	c0,0-5.322,9.033-18.475,9.033C64.045,82.277,54.692,83.1,45.57,73.244z"/>
<g>
	<path d="M52.833,41.61c0,0-1.14-0.237-2.851-0.592c-0.417-0.085-0.87-0.178-1.349-0.275c-0.474-0.089-0.974-0.183-1.491-0.279
		c-1.031-0.174-2.123-0.32-3.199-0.393c-1.077-0.071-2.137-0.045-3.103,0.104c-0.48,0.086-0.937,0.191-1.365,0.325
		c-0.417,0.155-0.811,0.317-1.167,0.501c-0.345,0.198-0.665,0.393-0.934,0.598c-0.272,0.199-0.49,0.405-0.691,0.562
		c-0.354,0.353-0.581,0.562-0.581,0.562s0.076-0.283,0.257-0.787c0.122-0.23,0.24-0.543,0.456-0.85
		c0.109-0.156,0.225-0.322,0.347-0.497c0.146-0.158,0.3-0.324,0.461-0.497c0.341-0.331,0.749-0.657,1.227-0.934
		c0.479-0.268,1.008-0.524,1.583-0.682c0.572-0.163,1.173-0.31,1.787-0.354c0.614-0.068,1.235-0.059,1.85-0.029
		c0.611,0.051,1.22,0.118,1.803,0.243c0.588,0.105,1.146,0.282,1.686,0.438c1.072,0.338,2.028,0.76,2.813,1.182
		C51.951,40.781,52.833,41.61,52.833,41.61z"/>
</g>
<g>
	<path d="M73.205,41.61c0,0,0.883-0.83,2.463-1.657c0.784-0.422,1.74-0.844,2.813-1.182c0.539-0.156,1.098-0.333,1.686-0.438
		c0.583-0.125,1.191-0.192,1.803-0.243c0.615-0.029,1.236-0.039,1.85,0.029c0.614,0.045,1.215,0.192,1.787,0.354
		c0.575,0.158,1.104,0.414,1.583,0.682c0.478,0.277,0.886,0.604,1.227,0.934c0.161,0.173,0.314,0.339,0.461,0.497
		c0.122,0.175,0.238,0.341,0.347,0.497c0.217,0.307,0.335,0.62,0.457,0.85c0.181,0.504,0.256,0.787,0.256,0.787
		s-0.227-0.208-0.58-0.562c-0.201-0.157-0.419-0.363-0.691-0.562c-0.27-0.205-0.59-0.399-0.934-0.598
		c-0.357-0.184-0.75-0.346-1.168-0.501c-0.428-0.134-0.884-0.239-1.364-0.325c-0.966-0.148-2.025-0.175-3.103-0.104
		c-1.076,0.073-2.168,0.219-3.199,0.393c-0.518,0.097-1.018,0.19-1.491,0.279c-0.479,0.098-0.931,0.19-1.349,0.275
		C74.346,41.374,73.205,41.61,73.205,41.61z"/>
</g>
</svg>
