<?xml version="1.0" encoding="utf-8"?>
<!-- Generator: Adobe Illustrator 16.0.0, SVG Export Plug-In . SVG Version: 6.00 Build 0)  -->
<!DOCTYPE svg PUBLIC "-//W3C//DTD SVG 1.1//EN" "http://www.w3.org/Graphics/SVG/1.1/DTD/svg11.dtd">
<svg version="1.1" id="Capa_1" xmlns="http://www.w3.org/2000/svg" xmlns:xlink="http://www.w3.org/1999/xlink" x="0px" y="0px"
	 width="128px" height="128px" viewBox="0 0 128 128" enable-background="new 0 0 128 128" xml:space="preserve">
<path display="none" d="M113.066,52.731h-2.867l-1.576-3.151c-7.08-16.258,2.111-45.135,2.205-45.425
	c0.212-0.648,0.099-1.361-0.305-1.911c-0.4-0.551-1.041-0.877-1.724-0.877H19.2c-0.747,0-1.438,0.391-1.824,1.028
	s-0.41,1.432-0.066,2.091C25.943,21,26.504,33.224,19.426,49.478l-1.625,3.251h-2.868c-3.528,0-6.4,2.871-6.4,6.4v1.971
	c0,3.528,2.872,6.399,6.4,6.399h2.134v42.667c0,5.882,4.785,10.667,10.667,10.667h6.4v3.613c0,2.714,2.206,4.92,4.919,4.92h49.896
	c2.711,0,4.918-2.206,4.918-4.92v-3.613h6.399c5.882,0,10.667-4.785,10.667-10.667V67.5h2.133c3.529,0,6.4-2.871,6.4-6.399v-1.969
	C119.467,55.603,116.596,52.731,113.066,52.731z M22.652,5.634h83.29c-1.158,4.137-3.172,12.335-3.938,21.333H28.478
	C28.171,20.087,26.255,13.196,22.652,5.634z M101.711,35.5H28.028c0.211-1.429,0.371-2.852,0.448-4.267h73.271
	C101.698,32.655,101.677,34.078,101.711,35.5z M23.29,51.285c1.745-4.011,3.053-7.816,3.93-11.518h74.756
	c0.399,4.12,1.248,8.101,2.784,11.621l0.588,1.18H22.649L23.29,51.285z M89.6,124.447c0,0.361-0.292,0.653-0.652,0.653H39.053
	c-0.36,0-0.653-0.292-0.653-0.653v-3.613h51.2V124.447z M106.666,97.189C99.328,96.074,96,89.234,96,82.434
	c0-5.881-4.785-10.666-10.666-10.666c-5.883,0-10.668,4.785-10.668,10.666c0,5.882,4.785,10.667,10.668,10.667
	c2.959,0,5.638-1.216,7.572-3.168c2.162,6.46,7.177,10.797,13.76,11.567v8.667c0,3.528-2.871,6.4-6.399,6.4h-6.399H34.133h-6.4
	c-3.529,0-6.4-2.872-6.4-6.4V67.5h85.333V97.189z M91.733,82.434c0,3.529-2.872,6.4-6.399,6.4c-3.529,0-6.4-2.871-6.4-6.4
	c0-3.528,2.871-6.4,6.4-6.4C88.861,76.033,91.733,78.905,91.733,82.434z M115.2,61.101c0,1.178-0.956,2.133-2.134,2.133H108.8H19.2
	h-4.267c-1.177,0-2.133-0.956-2.133-2.133v-1.969c0-1.177,0.956-2.133,2.133-2.133h98.133c1.178,0,2.134,0.956,2.134,2.133V61.101z"
	/>
<path d="M34.438,101.708c2.187,5.169,5.63,8.683,10.229,10.449c2.428,0.932,4.94,1.279,7.338,1.279c5.281,0,9.988-1.683,11.924-2.48
	c2.816,1.16,11.49,4.186,19.264,1.201c4.67-1.794,8.146-5.389,10.33-10.689c0.438-1.065-0.047-2.285-1.1-2.76
	c-1.051-0.473-2.286-0.023-2.792,1.012c-0.653,1.334-2.293,2.549-3.991,2.188c-2.08-0.439-4.175-1.451-6.231-3.002
	c-2.743-2.074-5.628-2.889-8.574-2.453c-3.022,0.458-5.414,2.199-6.907,3.607c-1.494-1.408-3.883-3.149-6.906-3.605
	c-2.943-0.453-5.828,0.377-8.573,2.451c-2.057,1.553-4.151,2.562-6.229,3.002c-1.828,0.385-3.334-0.73-3.936-2.049
	c-0.023-0.051-0.045-0.104-0.066-0.158l-0.037-0.07c-0.04-0.078-0.08-0.153-0.129-0.226c-0.568-0.875-1.699-1.214-2.674-0.776
	c-1.045,0.478-1.525,1.695-1.086,2.758C34.341,101.493,34.386,101.602,34.438,101.708z M43.101,106.081
	c2.697-0.571,5.361-1.838,7.92-3.773c1.811-1.369,3.553-1.912,5.339-1.643c3.392,0.499,5.817,3.775,5.835,3.799
	c0.4,0.56,1.045,0.891,1.734,0.891s1.331-0.331,1.734-0.891c0.023-0.031,2.445-3.285,5.815-3.797
	c1.796-0.258,3.544,0.267,5.363,1.641c2.558,1.933,5.222,3.202,7.919,3.773c0.128,0.028,0.252,0.049,0.377,0.068
	c-1.034,0.855-2.186,1.529-3.451,2.014c-7.512,2.894-16.744-1.418-16.836-1.463c-0.58-0.275-1.262-0.275-1.842,0.002
	c-0.092,0.045-9.263,4.371-16.811,1.468c-1.27-0.488-2.426-1.161-3.467-2.022C42.851,106.133,42.978,106.106,43.101,106.081z"/>
<circle cx="44.633" cy="75.024" r="6.709"/>
<path fill="none" stroke="#000000" stroke-width="4" stroke-miterlimit="10" d="M19.339,81.026v27.434c0,0-1.5,9.5,8.75,10.25h36.5"
	/>
<path fill="none" stroke="#000000" stroke-width="4" stroke-miterlimit="10" d="M109.66,80.813l0.13,27.433
	c0,0,1.545,9.493-8.701,10.292l-36.5,0.173"/>
<path fill="none" stroke="#000000" stroke-width="4" stroke-miterlimit="10" d="M19.339,91.733V64.3c0,0-1.5-9.5,8.75-10.25h36.5"/>
<path fill="none" stroke="#000000" stroke-width="4" stroke-miterlimit="10" d="M109.817,91.732V64.299c0,0,1.5-9.499-8.75-10.249
	h-36.5"/>
<path d="M36.417,118.71"/>
<path fill="none" stroke="#000000" stroke-width="4" stroke-miterlimit="10" d="M36.417,119.083v5.667c0,0,0,2.916,3.083,2.833
	l49.75,0.002c0,0,2.5-0.501,2.75-3.168v-5.334"/>
<path fill="none" stroke="#000000" stroke-miterlimit="10" d="M28.667,127.585"/>
<path fill="none" stroke="#000000" stroke-width="4" stroke-miterlimit="10" d="M36.114,52.252v-5.667c0,0,0-2.916,3.083-2.833
	l49.75-0.002c0,0,2.5,0.501,2.75,3.168v5.334"/>
<circle fill="#FFFFFF" cx="44.633" cy="75.025" r="1.625"/>
<circle fill="none" stroke="#000000" stroke-width="3" stroke-miterlimit="10" cx="81.582" cy="75.025" r="15.875"/>
<circle cx="81.582" cy="75.024" r="6.709"/>
<circle fill="#FFFFFF" cx="81.582" cy="75.025" r="1.625"/>
<path fill="none" stroke="#000000" stroke-width="3" stroke-miterlimit="10" d="M93.688,85.295c0,0-2.795,15.493,16.056,12.917"/>
</svg>
