<?xml version="1.0" encoding="utf-8"?>
<!-- Generator: Adobe Illustrator 16.0.0, SVG Export Plug-In . SVG Version: 6.00 Build 0)  -->
<!DOCTYPE svg PUBLIC "-//W3C//DTD SVG 1.1//EN" "http://www.w3.org/Graphics/SVG/1.1/DTD/svg11.dtd">
<svg version="1.1" id="Capa_1" xmlns="http://www.w3.org/2000/svg" xmlns:xlink="http://www.w3.org/1999/xlink" x="0px" y="0px"
	 width="2409.451px" height="1530.71px" viewBox="0 0 2409.451 1530.71" enable-background="new 0 0 2409.451 1530.71"
	 xml:space="preserve">
<path d="M1954.435,1132.605c-54.45-122.06-71.58-353.11-76.92-480c-5.01-119.83-40.76-232.45-103.33-325.69
	c-111.79-166.58-235.83-234.48-319.42-271.06c-170.21-74.46-365.38-74.48-535.6,0c-98.35,43.02-210.84,105.69-299.54,244.34
	c-59.46,92.95-92.15,204.95-94.49,323.9c-2.69,136.72-15.43,385.149-70.72,513.08c-17.59,40.729,0.96,88.39,41.33,106.239
	c23.22,10.271,67.61,16.4,123.28,23.32c3.61,0.47,6.88,0.86,10.28,1.3v29.16c0,69.09,60.81,129.71,130.1,129.71h65.09v43.95
	c0,13.01,4.17,25.06,11.26,34.89c10.86,15.091,28.59,24.94,48.57,24.94h606.79c19.971,0,37.7-9.84,48.561-24.94
	c7.09-9.83,11.26-21.88,11.26-34.89v-43.95h85.44c70.38,0,134.489-61.819,134.489-129.71v-30.07
	c14.03-2.31,28.511-4.489,42.98-6.479c37.62-5.3,73.14-10.28,96.12-19.2c20.89-8.12,37.05-23.95,45.529-44.57
	C1964.035,1176.115,1963.645,1153.285,1954.435,1132.605z M876.385,1470.885v-43.95h622.64v43.95c0,4.38-3.55,7.939-7.939,7.939
	h-606.76C879.935,1478.825,876.385,1475.265,876.385,1470.885z M1636.345,1375.055h-876.94c-40.21,0-78.22-37.83-78.22-77.83
	v-572.24c104.76-7.21,502.97-46.75,669.83-235.62c37.7,69.92,128.53,215.62,248.15,253.34c40.5,12.71,80.609,12.27,119.729-1.48v556
	h0.05C1718.945,1336.495,1678.035,1375.055,1636.345,1375.055z M1907.475,1177.155c-3.01,7.37-8.82,13.021-16.31,15.931
	c-17.36,6.739-51.53,11.52-84.58,16.159c-11.88,1.66-23.92,3.4-35.78,5.24v-513.96c0-9.32-4.98-17.9-13.07-22.52
	c-8.12-4.62-18.01-4.57-26.069,0.18c-38.5,22.78-76.721,27.66-116.83,15.05c-133.61-42.06-234.5-260.68-235.511-262.89
	c-3.89-8.56-12.119-14.34-21.479-15.1c-9.26-0.8-18.4,3.56-23.66,11.37c-150.21,223.32-674.74,247.78-680.03,248.02
	c-13.88,0.57-24.85,12.01-24.85,25.91v515.27c-1.33-0.19-2.49-0.32-3.84-0.5c-36.09-4.51-90.62-11.31-108.68-19.3
	c-14.68-6.49-21.12-23.271-14.68-38.21c58.78-136.16,72.17-392.19,74.95-532.7c2.15-109.4,31.98-212.09,86.31-296.95
	c81.2-126.96,185.39-184.87,276.61-224.77c156.96-68.67,337-68.67,493.96,0c77.65,33.99,192.94,97.13,297.15,252.45
	c57.239,85.28,89.949,188.64,94.59,298.92c6.75,159.48,26.31,375.53,81.39,498.95
	C1910.416,1161.305,1910.565,1169.655,1907.475,1177.155z"/>
<path fill="none" d="M2071.135-0.405v1494.149c0,6.63-5.38,12-12,12h-519.46c7.09-9.83,11.26-21.88,11.26-34.89v-43.95h85.44
	c70.38,0,134.489-61.819,134.489-129.71v-30.07c14.03-2.31,28.511-4.489,42.98-6.479c37.62-5.3,73.14-10.28,96.12-19.2
	c20.89-8.12,37.05-23.95,45.529-44.57c8.54-20.76,8.15-43.59-1.06-64.27c-54.45-122.06-71.58-353.11-76.92-480
	c-5.01-119.83-40.76-232.45-103.33-325.69c-111.79-166.58-235.83-234.48-319.42-271.06c-170.21-74.46-365.38-74.48-535.6,0
	c-98.35,43.02-210.84,105.69-299.54,244.34c-59.46,92.95-92.15,204.95-94.49,323.9c-2.69,136.72-15.43,385.149-70.72,513.08
	c-17.59,40.729,0.96,88.39,41.33,106.239c23.22,10.271,67.61,16.4,123.28,23.32c3.61,0.47,6.88,0.86,10.28,1.3v29.16
	c0,69.09,60.81,129.71,130.1,129.71h65.09v43.95c0,13.01,4.17,25.06,11.26,34.89h-495.8c-6.63,0-12-5.37-12-12V-0.405
	c0-6.63,5.37-12,12-12h1719.18C2065.756-12.405,2071.135-7.035,2071.135-0.405z"/>
<path fill="#EAB420" d="M1718.895,1297.225v-556c-39.12,13.75-79.229,14.19-119.729,1.48c-119.62-37.72-210.45-183.42-248.15-253.34
	c-166.86,188.87-565.07,228.41-669.83,235.62v572.24c0,40,38.01,77.83,78.22,77.83h876.94c41.689,0,82.6-38.561,82.6-77.83H1718.895
	z M980.156,1063.735c-100.11,0-181.6-81.49-181.6-181.61c0-100.109,81.49-181.6,181.6-181.6c100.12,0,181.61,81.49,181.61,181.6
	C1161.765,982.245,1080.275,1063.735,980.156,1063.735z M1447.145,1063.735c-100.12,0-181.61-81.49-181.61-181.61
	c0-100.109,81.49-181.6,181.61-181.6c100.11,0,181.6,81.49,181.6,181.6C1628.745,982.245,1547.256,1063.735,1447.145,1063.735z"/>
<path fill="none" stroke="#000000" stroke-miterlimit="10" d="M1109.875,882.125c0,71.53-58.19,129.721-129.72,129.721
	c-71.52,0-129.71-58.19-129.71-129.721c0-71.52,58.19-129.72,129.71-129.72C1051.685,752.405,1109.875,810.605,1109.875,882.125z"/>
<path fill="none" stroke="#000000" stroke-miterlimit="10" d="M1576.855,882.125c0,71.53-58.189,129.721-129.71,129.721
	c-71.53,0-129.72-58.19-129.72-129.721c0-71.52,58.189-129.72,129.72-129.72C1518.666,752.405,1576.855,810.605,1576.855,882.125z"
	/>
<path d="M1954.435,1132.605c-54.45-122.06-71.58-353.11-76.92-480c-5.01-119.83-40.76-232.45-103.33-325.69
	c-111.79-166.58-235.83-234.48-319.42-271.06c-170.21-74.46-365.38-74.48-535.6,0c-98.35,43.02-210.84,105.69-299.54,244.34
	c-59.46,92.95-92.15,204.95-94.49,323.9c-2.69,136.72-15.43,385.149-70.72,513.08c-17.59,40.729,0.96,88.39,41.33,106.239
	c23.22,10.271,67.61,16.4,123.28,23.32c3.61,0.47,6.88,0.86,10.28,1.3v29.16c0,69.09,60.81,129.71,130.1,129.71h65.09v43.95
	c0,13.01,4.17,25.06,11.26,34.89h703.92c7.09-9.83,11.26-21.88,11.26-34.89v-43.95h85.44c70.38,0,134.489-61.819,134.489-129.71
	v-30.07c14.03-2.31,28.511-4.489,42.98-6.479c37.62-5.3,73.14-10.28,96.12-19.2c20.89-8.12,37.05-23.95,45.529-44.57
	C1964.035,1176.115,1963.645,1153.285,1954.435,1132.605z M1499.025,1470.885c0,4.38-3.55,7.939-7.939,7.939h-606.76
	c-4.39,0-7.94-3.56-7.94-7.939v-43.95h622.64V1470.885z M1636.345,1375.055h-876.94c-40.21,0-78.22-37.83-78.22-77.83v-572.24
	c104.76-7.21,502.97-46.75,669.83-235.62c37.7,69.92,128.53,215.62,248.15,253.34c40.5,12.71,80.609,12.27,119.729-1.48v556h0.05
	C1718.945,1336.495,1678.035,1375.055,1636.345,1375.055z M1907.475,1177.155c-3.01,7.37-8.82,13.021-16.31,15.931
	c-17.36,6.739-51.53,11.52-84.58,16.159c-11.88,1.66-23.92,3.4-35.78,5.24v-513.96c0-9.32-4.98-17.9-13.07-22.52
	c-8.12-4.62-18.01-4.57-26.069,0.18c-38.5,22.78-76.721,27.66-116.83,15.05c-133.61-42.06-234.5-260.68-235.511-262.89
	c-3.89-8.56-12.119-14.34-21.479-15.1c-9.26-0.8-18.4,3.56-23.66,11.37c-150.21,223.32-674.74,247.78-680.03,248.02
	c-13.88,0.57-24.85,12.01-24.85,25.91v515.27c-1.33-0.19-2.49-0.32-3.84-0.5c-36.09-4.51-90.62-11.31-108.68-19.3
	c-14.68-6.49-21.12-23.271-14.68-38.21c58.78-136.16,72.17-392.19,74.95-532.7c2.15-109.4,31.98-212.09,86.31-296.95
	c81.2-126.96,185.39-184.87,276.61-224.77c156.96-68.67,337-68.67,493.96,0c77.65,33.99,192.94,97.13,297.15,252.45
	c57.239,85.28,89.949,188.64,94.59,298.92c6.75,159.48,26.31,375.53,81.39,498.95
	C1910.416,1161.305,1910.565,1169.655,1907.475,1177.155z"/>
<path fill="#4B1900" d="M1907.475,1177.155c-3.01,7.37-8.82,13.021-16.31,15.931c-17.36,6.739-51.53,11.52-84.58,16.159
	c-11.88,1.66-23.92,3.4-35.78,5.24v-513.96c0-9.32-4.98-17.9-13.07-22.52c-8.12-4.62-18.01-4.57-26.069,0.18
	c-38.5,22.78-76.721,27.66-116.83,15.05c-133.61-42.06-234.5-260.68-235.511-262.89c-3.89-8.56-12.119-14.34-21.479-15.1
	c-9.26-0.8-18.4,3.56-23.66,11.37c-150.21,223.32-674.74,247.78-680.03,248.02c-13.88,0.57-24.85,12.01-24.85,25.91v515.27
	c-1.33-0.19-2.49-0.32-3.84-0.5c-36.09-4.51-90.62-11.31-108.68-19.3c-14.68-6.49-21.12-23.271-14.68-38.21
	c58.78-136.16,72.17-392.19,74.95-532.7c2.15-109.4,31.98-212.09,86.31-296.95c81.2-126.96,185.39-184.87,276.61-224.77
	c156.96-68.67,337-68.67,493.96,0c77.65,33.99,192.94,97.13,297.15,252.45c57.239,85.28,89.949,188.64,94.59,298.92
	c6.75,159.48,26.31,375.53,81.39,498.95C1910.416,1161.305,1910.565,1169.655,1907.475,1177.155z"/>
<path fill="#EAB420" d="M1499.025,1426.935v43.95c0,4.38-3.55,7.939-7.939,7.939h-606.76c-4.39,0-7.94-3.56-7.94-7.939v-43.95
	H1499.025z"/>
<path stroke="#FFFFFF" stroke-miterlimit="10" d="M1447.145,700.525c-100.12,0-181.61,81.49-181.61,181.6
	c0,100.12,81.49,181.61,181.61,181.61c100.11,0,181.6-81.49,181.6-181.61C1628.745,782.015,1547.256,700.525,1447.145,700.525z
	 M1447.145,1011.845c-71.53,0-129.72-58.19-129.72-129.721c0-71.52,58.189-129.72,129.72-129.72c71.521,0,129.71,58.2,129.71,129.72
	C1576.855,953.655,1518.666,1011.845,1447.145,1011.845z"/>
<path stroke="#FFFFFF" stroke-miterlimit="10" d="M980.156,700.525c-100.11,0-181.6,81.49-181.6,181.6
	c0,100.12,81.49,181.61,181.6,181.61c100.12,0,181.61-81.49,181.61-181.61C1161.765,782.015,1080.275,700.525,980.156,700.525z
	 M980.156,1011.845c-71.52,0-129.71-58.19-129.71-129.721c0-71.52,58.19-129.72,129.71-129.72c71.53,0,129.72,58.2,129.72,129.72
	C1109.875,953.655,1051.685,1011.845,980.156,1011.845z"/>
<circle stroke="#FFFFFF" stroke-miterlimit="10" cx="980.16" cy="882.125" r="28.503"/>
<circle stroke="#FFFFFF" stroke-miterlimit="10" cx="1447.14" cy="882.13" r="28.503"/>
<path fill="#FFFFFF" stroke="#000000" stroke-width="28.3465" stroke-miterlimit="10" d="M1019.261,1145.713h361.607
	c0,0-2.059,118.807-172.416,113.856C1208.453,1259.57,1041.629,1275.805,1019.261,1145.713z"/>
</svg>
