<?xml version="1.0" encoding="utf-8"?>
<!-- Generator: Adobe Illustrator 16.0.0, SVG Export Plug-In . SVG Version: 6.00 Build 0)  -->
<!DOCTYPE svg PUBLIC "-//W3C//DTD SVG 1.1//EN" "http://www.w3.org/Graphics/SVG/1.1/DTD/svg11.dtd">
<svg version="1.1" id="Capa_1" xmlns="http://www.w3.org/2000/svg" xmlns:xlink="http://www.w3.org/1999/xlink" x="0px" y="0px"
	 width="2409.451px" height="1530.71px" viewBox="0 0 2409.451 1530.71" enable-background="new 0 0 2409.451 1530.71"
	 xml:space="preserve">
<path d="M1175.935,1063.545c-70.36,0-127.61,57.239-127.61,127.609c0,70.36,57.25,127.601,127.61,127.601
	c70.36,0,127.61-57.24,127.61-127.601C1303.546,1120.785,1246.296,1063.545,1175.935,1063.545z M1175.935,1267.715
	c-42.21,0-76.56-34.351-76.56-76.561c0-42.22,34.35-76.569,76.56-76.569s76.56,34.35,76.56,76.569
	C1252.495,1233.365,1218.145,1267.715,1175.935,1267.715z"/>
<path d="M1405.626,611.945c-98.511,0-178.65,80.17-178.65,178.65c0,98.49,80.14,178.649,178.65,178.649
	c98.51,0,178.649-80.159,178.649-178.649C1584.275,692.115,1504.135,611.945,1405.626,611.945z M1405.626,918.205
	c-70.36,0-127.61-57.25-127.61-127.609c0-70.36,57.25-127.6,127.61-127.6c70.359,0,127.609,57.24,127.609,127.6
	C1533.235,860.955,1475.985,918.205,1405.626,918.205z"/>
<circle cx="1405.626" cy="790.595" r="51.04"/>
<path d="M946.245,611.945c-98.51,0-178.65,80.17-178.65,178.65c0,98.49,80.14,178.649,178.65,178.649
	c98.51,0,178.65-80.14,178.65-178.649C1124.895,692.115,1044.755,611.945,946.245,611.945z M946.245,918.205
	c-70.36,0-127.61-57.25-127.61-127.609c0-70.36,57.25-127.6,127.61-127.6s127.6,57.24,127.6,127.6
	C1073.845,860.955,1016.605,918.205,946.245,918.205z"/>
<circle cx="946.245" cy="790.595" r="51.04"/>
<path d="M1839.235,480.875c-14.37-104.18-59.29-194.09-123.14-246.74c-16.44-13.55-28.49-34.84-35.78-63.27
	c-21.109-81.9-98.18-139.12-196.39-145.83c-54.641-3.85-101.98,13.2-153.84,33.97c-1.79,0.77-3.931,0.69-7.051-1.27
	c-10.64-28.23-34.729-47.65-67.829-54.67c-9.75-2.06-20.16-3.06-31.101-3.06c-75.31,0-175.82,47.42-258.67,122.78
	c0.15-22.74,4.9-43.06,17.76-49.46l43.01-21.52l-41.93-23.55c-44.33-24.96-151.19-52.04-238.22,24.09
	c-31.59,27.61-54.54,66.25-66.33,111.71c-2.4,9.29-4.85,19.26-7.07,29.09c-0.97,4.24-4.44,5.51-5.87,5.84
	c-2.83,0.62-5.05-0.02-7.63-3.11c-13.63-16.64-34.25-24.75-55.41-21.85c-20.31,2.86-37.31,15.85-45.42,34.77
	c-50.23,116.55-144.2,413.21,56.14,667.09v425.14c0,70.36,57.25,127.6,127.61,127.6h76.56v43.23c0,32.44,26.39,58.86,58.83,58.86
	h596.939c32.44,0,58.83-26.391,58.83-58.86v-43.23h76.561c70.359,0,127.609-57.239,127.609-127.6v-423.78
	C1767.285,843.605,1870.725,708.525,1839.235,480.875z M1482.185,1471.885c0,4.31-3.49,7.81-7.78,7.81H877.466
	c-4.29,0-7.78-3.5-7.78-7.81v-43.23h612.5V1471.885z M1609.796,1377.585h-867.72c-42.21,0-76.56-34.351-76.56-76.561v-736.27
	c31.41-13.57,70.61-36.29,107.08-73.62c35.94,18.63,122.68,55.07,273.28,69.64l14.42,1.41l8.58-11.67
	c0.97-1.3,96.98-127.45,345.71-93.81c13.17,22.71,45.859,68.19,104.97,87.51c49.79,16.28,105.729,10.34,166.78-17.69v774.5h0.02
	C1686.355,1343.235,1652.006,1377.585,1609.796,1377.585z M1737.376,789.295V439.755l-38.46,22.59
	c-62.73,36.85-117.551,48.13-162.95,33.53c-7.05-2.27-13.61-5.1-19.681-8.29c-2.52-1.33-4.59-2.94-6.97-4.39
	c-3.31-2.04-6.84-3.98-9.82-6.23c-2.76-2.04-5.029-4.24-7.5-6.35c-2.149-1.84-4.5-3.6-6.439-5.49c-2.73-2.63-5-5.26-7.35-7.86
	c-1.25-1.4-2.73-2.81-3.87-4.19c-2.58-3.08-4.7-5.97-6.771-8.8c-0.56-0.79-1.33-1.66-1.84-2.43c-2.29-3.29-4.18-6.27-5.76-8.9
	c-0.08-0.16-0.23-0.36-0.34-0.51c-3.261-5.46-4.92-9.06-5.07-9.42l-0.03-0.03l-5.54-12.83l-13.96-2.15
	c-244.75-37.77-364.01,64.75-397.36,100.56c-177.76-19.27-254.86-70.36-255.55-70.8l-18.88-13.09l-14.98,17.43
	c-39.79,46.24-85.63,69.77-117.1,81.36l-16.69,6.25v256.88c-125.13-208.97-62.19-434.81-9.29-557.62c0.44-0.97,1.66-3.83,5.7-4.39
	c1.6-0.23,5.58-0.3,8.39,3.17l1.63,1.99c14.17,16.87,36.32,24.17,57.94,18.86c21.97-5.34,38.69-22.31,43.61-44.26
	c2.1-9.23,4.42-18.65,6.69-27.46c9.21-35.47,26.67-65.25,50.53-86.08c53.49-46.81,112.7-40.73,148.03-30.5
	c-12.76,24.2-16.54,58.17-10.7,99.84c1.92,13.73,11.31,24.99,24.48,29.33c13.32,4.41,27.79,0.91,37.69-9.12
	c97.16-98.64,209.22-139.29,265.42-127.35c24.02,5.08,29.02,18.38,30.649,22.74c5.061,13.4,15.21,24.02,28.66,29.94
	c14.19,6.25,30.63,6.53,45.15,0.74c47.6-19.07,87.41-33.38,131.41-30.42c60.38,4.11,131.59,34.53,150.39,107.6
	c10.09,39.12,27.82,69.39,52.76,89.93c25.601,21.11,87.08,84.22,105.07,214.33C1808.275,629.635,1770.836,730.745,1737.376,789.295z
	"/>
<path fill="none" d="M983.196,73.325l43.01-21.52l-41.93-23.55c-44.33-24.96-151.19-52.04-238.22,24.09
	c-31.59,27.61-54.54,66.25-66.33,111.71c-2.4,9.29-4.85,19.26-7.07,29.09c-0.97,4.24-4.44,5.51-5.87,5.84
	c-2.83,0.62-5.05-0.02-7.63-3.11c-13.63-16.64-34.25-24.75-55.41-21.85c-20.31,2.86-37.31,15.85-45.42,34.77
	c-50.23,116.55-144.2,413.21,56.14,667.09v425.14c0,70.36,57.25,127.6,127.61,127.6h76.56v43.23c0,32.44,26.39,58.86,58.83,58.86
	h-630.52V0.005h977.16c-75.31,0-175.82,47.42-258.67,122.78C965.585,100.045,970.335,79.725,983.196,73.325z"/>
<path fill="none" d="M1948.115,0.005v1530.71h-473.71c32.44,0,58.83-26.391,58.83-58.86v-43.23h76.561
	c70.359,0,127.609-57.239,127.609-127.6v-423.78c29.88-33.64,133.32-168.72,101.83-396.37c-14.37-104.18-59.29-194.09-123.14-246.74
	c-16.44-13.55-28.49-34.84-35.78-63.27c-21.109-81.9-98.18-139.12-196.39-145.83c-54.641-3.85-101.98,13.2-153.84,33.97
	c-1.79,0.77-3.931,0.69-7.051-1.27c-10.64-28.23-34.729-47.65-67.829-54.67c-9.75-2.06-20.16-3.06-31.101-3.06H1948.115z"/>
<path fill="none" d="M946.245,662.995c-70.36,0-127.61,57.24-127.61,127.6c0,70.359,57.25,127.609,127.61,127.609
	s127.6-57.25,127.6-127.609C1073.845,720.235,1016.605,662.995,946.245,662.995z M946.245,841.635
	c-28.19,0-51.04-22.851-51.04-51.04c0-28.19,22.85-51.04,51.04-51.04s51.04,22.85,51.04,51.04
	C997.285,818.785,974.435,841.635,946.245,841.635z"/>
<circle cx="946.245" cy="790.595" r="51.04"/>
<path d="M1405.626,739.555c-28.19,0-51.04,22.85-51.04,51.04c0,28.189,22.85,51.04,51.04,51.04c28.189,0,51.04-22.851,51.04-51.04
	C1456.666,762.405,1433.815,739.555,1405.626,739.555z M1405.626,739.555c-28.19,0-51.04,22.85-51.04,51.04
	c0,28.189,22.85,51.04,51.04,51.04c28.189,0,51.04-22.851,51.04-51.04C1456.666,762.405,1433.815,739.555,1405.626,739.555z
	 M946.245,611.945c-98.51,0-178.65,80.17-178.65,178.65c0,98.49,80.14,178.649,178.65,178.649c98.51,0,178.65-80.14,178.65-178.649
	C1124.895,692.115,1044.755,611.945,946.245,611.945z M946.245,918.205c-70.36,0-127.61-57.25-127.61-127.609
	c0-70.36,57.25-127.6,127.61-127.6s127.6,57.24,127.6,127.6C1073.845,860.955,1016.605,918.205,946.245,918.205z M1175.935,1063.545
	c-70.36,0-127.61,57.239-127.61,127.609c0,70.36,57.25,127.601,127.61,127.601c70.36,0,127.61-57.24,127.61-127.601
	C1303.546,1120.785,1246.296,1063.545,1175.935,1063.545z M1175.935,1267.715c-42.21,0-76.56-34.351-76.56-76.561
	c0-42.22,34.35-76.569,76.56-76.569s76.56,34.35,76.56,76.569C1252.495,1233.365,1218.145,1267.715,1175.935,1267.715z
	 M1405.626,739.555c-28.19,0-51.04,22.85-51.04,51.04c0,28.189,22.85,51.04,51.04,51.04c28.189,0,51.04-22.851,51.04-51.04
	C1456.666,762.405,1433.815,739.555,1405.626,739.555z M1405.626,739.555c-28.19,0-51.04,22.85-51.04,51.04
	c0,28.189,22.85,51.04,51.04,51.04c28.189,0,51.04-22.851,51.04-51.04C1456.666,762.405,1433.815,739.555,1405.626,739.555z
	 M1405.626,739.555c-28.19,0-51.04,22.85-51.04,51.04c0,28.189,22.85,51.04,51.04,51.04c28.189,0,51.04-22.851,51.04-51.04
	C1456.666,762.405,1433.815,739.555,1405.626,739.555z M1405.626,739.555c-28.19,0-51.04,22.85-51.04,51.04
	c0,28.189,22.85,51.04,51.04,51.04c28.189,0,51.04-22.851,51.04-51.04C1456.666,762.405,1433.815,739.555,1405.626,739.555z
	 M1405.626,611.945c-98.511,0-178.65,80.17-178.65,178.65c0,98.49,80.14,178.649,178.65,178.649
	c98.51,0,178.649-80.159,178.649-178.649C1584.275,692.115,1504.135,611.945,1405.626,611.945z M1405.626,918.205
	c-70.36,0-127.61-57.25-127.61-127.609c0-70.36,57.25-127.6,127.61-127.6c70.359,0,127.609,57.24,127.609,127.6
	C1533.235,860.955,1475.985,918.205,1405.626,918.205z M1405.626,739.555c-28.19,0-51.04,22.85-51.04,51.04
	c0,28.189,22.85,51.04,51.04,51.04c28.189,0,51.04-22.851,51.04-51.04C1456.666,762.405,1433.815,739.555,1405.626,739.555z
	 M1405.626,739.555c-28.19,0-51.04,22.85-51.04,51.04c0,28.189,22.85,51.04,51.04,51.04c28.189,0,51.04-22.851,51.04-51.04
	C1456.666,762.405,1433.815,739.555,1405.626,739.555z M1405.626,739.555c-28.19,0-51.04,22.85-51.04,51.04
	c0,28.189,22.85,51.04,51.04,51.04c28.189,0,51.04-22.851,51.04-51.04C1456.666,762.405,1433.815,739.555,1405.626,739.555z
	 M1405.626,739.555c-28.19,0-51.04,22.85-51.04,51.04c0,28.189,22.85,51.04,51.04,51.04c28.189,0,51.04-22.851,51.04-51.04
	C1456.666,762.405,1433.815,739.555,1405.626,739.555z M1405.626,739.555c-28.19,0-51.04,22.85-51.04,51.04
	c0,28.189,22.85,51.04,51.04,51.04c28.189,0,51.04-22.851,51.04-51.04C1456.666,762.405,1433.815,739.555,1405.626,739.555z
	 M1405.626,611.945c-98.511,0-178.65,80.17-178.65,178.65c0,98.49,80.14,178.649,178.65,178.649
	c98.51,0,178.649-80.159,178.649-178.649C1584.275,692.115,1504.135,611.945,1405.626,611.945z M1405.626,918.205
	c-70.36,0-127.61-57.25-127.61-127.609c0-70.36,57.25-127.6,127.61-127.6c70.359,0,127.609,57.24,127.609,127.6
	C1533.235,860.955,1475.985,918.205,1405.626,918.205z M1405.626,739.555c-28.19,0-51.04,22.85-51.04,51.04
	c0,28.189,22.85,51.04,51.04,51.04c28.189,0,51.04-22.851,51.04-51.04C1456.666,762.405,1433.815,739.555,1405.626,739.555z
	 M1405.626,739.555c-28.19,0-51.04,22.85-51.04,51.04c0,28.189,22.85,51.04,51.04,51.04c28.189,0,51.04-22.851,51.04-51.04
	C1456.666,762.405,1433.815,739.555,1405.626,739.555z M1405.626,739.555c-28.19,0-51.04,22.85-51.04,51.04
	c0,28.189,22.85,51.04,51.04,51.04c28.189,0,51.04-22.851,51.04-51.04C1456.666,762.405,1433.815,739.555,1405.626,739.555z
	 M1175.935,1063.545c-70.36,0-127.61,57.239-127.61,127.609c0,70.36,57.25,127.601,127.61,127.601
	c70.36,0,127.61-57.24,127.61-127.601C1303.546,1120.785,1246.296,1063.545,1175.935,1063.545z M1175.935,1267.715
	c-42.21,0-76.56-34.351-76.56-76.561c0-42.22,34.35-76.569,76.56-76.569s76.56,34.35,76.56,76.569
	C1252.495,1233.365,1218.145,1267.715,1175.935,1267.715z M946.245,611.945c-98.51,0-178.65,80.17-178.65,178.65
	c0,98.49,80.14,178.649,178.65,178.649c98.51,0,178.65-80.14,178.65-178.649C1124.895,692.115,1044.755,611.945,946.245,611.945z
	 M946.245,918.205c-70.36,0-127.61-57.25-127.61-127.609c0-70.36,57.25-127.6,127.61-127.6s127.6,57.24,127.6,127.6
	C1073.845,860.955,1016.605,918.205,946.245,918.205z M946.245,611.945c-98.51,0-178.65,80.17-178.65,178.65
	c0,98.49,80.14,178.649,178.65,178.649c98.51,0,178.65-80.14,178.65-178.649C1124.895,692.115,1044.755,611.945,946.245,611.945z
	 M946.245,918.205c-70.36,0-127.61-57.25-127.61-127.609c0-70.36,57.25-127.6,127.61-127.6s127.6,57.24,127.6,127.6
	C1073.845,860.955,1016.605,918.205,946.245,918.205z M1175.935,1063.545c-70.36,0-127.61,57.239-127.61,127.609
	c0,70.36,57.25,127.601,127.61,127.601c70.36,0,127.61-57.24,127.61-127.601C1303.546,1120.785,1246.296,1063.545,1175.935,1063.545
	z M1175.935,1267.715c-42.21,0-76.56-34.351-76.56-76.561c0-42.22,34.35-76.569,76.56-76.569s76.56,34.35,76.56,76.569
	C1252.495,1233.365,1218.145,1267.715,1175.935,1267.715z M1405.626,739.555c-28.19,0-51.04,22.85-51.04,51.04
	c0,28.189,22.85,51.04,51.04,51.04c28.189,0,51.04-22.851,51.04-51.04C1456.666,762.405,1433.815,739.555,1405.626,739.555z
	 M1405.626,739.555c-28.19,0-51.04,22.85-51.04,51.04c0,28.189,22.85,51.04,51.04,51.04c28.189,0,51.04-22.851,51.04-51.04
	C1456.666,762.405,1433.815,739.555,1405.626,739.555z M1405.626,611.945c-98.511,0-178.65,80.17-178.65,178.65
	c0,98.49,80.14,178.649,178.65,178.649c98.51,0,178.649-80.159,178.649-178.649C1584.275,692.115,1504.135,611.945,1405.626,611.945
	z M1405.626,918.205c-70.36,0-127.61-57.25-127.61-127.609c0-70.36,57.25-127.6,127.61-127.6c70.359,0,127.609,57.24,127.609,127.6
	C1533.235,860.955,1475.985,918.205,1405.626,918.205z M1405.626,739.555c-28.19,0-51.04,22.85-51.04,51.04
	c0,28.189,22.85,51.04,51.04,51.04c28.189,0,51.04-22.851,51.04-51.04C1456.666,762.405,1433.815,739.555,1405.626,739.555z
	 M1405.626,611.945c-98.511,0-178.65,80.17-178.65,178.65c0,98.49,80.14,178.649,178.65,178.649
	c98.51,0,178.649-80.159,178.649-178.649C1584.275,692.115,1504.135,611.945,1405.626,611.945z M1405.626,918.205
	c-70.36,0-127.61-57.25-127.61-127.609c0-70.36,57.25-127.6,127.61-127.6c70.359,0,127.609,57.24,127.609,127.6
	C1533.235,860.955,1475.985,918.205,1405.626,918.205z M1405.626,739.555c-28.19,0-51.04,22.85-51.04,51.04
	c0,28.189,22.85,51.04,51.04,51.04c28.189,0,51.04-22.851,51.04-51.04C1456.666,762.405,1433.815,739.555,1405.626,739.555z
	 M1175.935,1063.545c-70.36,0-127.61,57.239-127.61,127.609c0,70.36,57.25,127.601,127.61,127.601
	c70.36,0,127.61-57.24,127.61-127.601C1303.546,1120.785,1246.296,1063.545,1175.935,1063.545z M1175.935,1267.715
	c-42.21,0-76.56-34.351-76.56-76.561c0-42.22,34.35-76.569,76.56-76.569s76.56,34.35,76.56,76.569
	C1252.495,1233.365,1218.145,1267.715,1175.935,1267.715z M1124.895,790.595c0-98.48-80.14-178.65-178.65-178.65
	c-98.51,0-178.65,80.17-178.65,178.65c0,98.49,80.14,178.649,178.65,178.649C1044.755,969.245,1124.895,889.105,1124.895,790.595z
	 M946.245,918.205c-70.36,0-127.61-57.25-127.61-127.609c0-70.36,57.25-127.6,127.61-127.6s127.6,57.24,127.6,127.6
	C1073.845,860.955,1016.605,918.205,946.245,918.205z M1839.235,480.875c-14.37-104.18-59.29-194.09-123.14-246.74
	c-16.44-13.55-28.49-34.84-35.78-63.27c-21.109-81.9-98.18-139.12-196.39-145.83c-54.641-3.85-101.98,13.2-153.84,33.97
	c-1.79,0.77-3.931,0.69-7.051-1.27c-10.64-28.23-34.729-47.65-67.829-54.67c-9.75-2.06-20.16-3.06-31.101-3.06
	c-75.31,0-175.82,47.42-258.67,122.78c0.15-22.74,4.9-43.06,17.76-49.46l43.01-21.52l-41.93-23.55
	c-44.33-24.96-151.19-52.04-238.22,24.09c-31.59,27.61-54.54,66.25-66.33,111.71c-2.4,9.29-4.85,19.26-7.07,29.09
	c-0.97,4.24-4.44,5.51-5.87,5.84c-2.83,0.62-5.05-0.02-7.63-3.11c-13.63-16.64-34.25-24.75-55.41-21.85
	c-20.31,2.86-37.31,15.85-45.42,34.77c-50.23,116.55-144.2,413.21,56.14,667.09v425.14c0,70.36,57.25,127.6,127.61,127.6h76.56
	v43.23c0,32.44,26.39,58.86,58.83,58.86h596.939c32.44,0,58.83-26.391,58.83-58.86v-43.23h76.561
	c70.359,0,127.609-57.239,127.609-127.6v-423.78C1767.285,843.605,1870.725,708.525,1839.235,480.875z M1482.185,1471.885
	c0,4.31-3.49,7.81-7.78,7.81H877.466c-4.29,0-7.78-3.5-7.78-7.81v-43.23h612.5V1471.885z M1609.796,1377.585h-867.72
	c-42.21,0-76.56-34.351-76.56-76.561v-736.27c31.41-13.57,70.61-36.29,107.08-73.62c35.94,18.63,122.68,55.07,273.28,69.64
	l14.42,1.41l8.58-11.67c0.97-1.3,96.98-127.45,345.71-93.81c13.17,22.71,45.859,68.19,104.97,87.51
	c49.79,16.28,105.729,10.34,166.78-17.69v774.5h0.02C1686.355,1343.235,1652.006,1377.585,1609.796,1377.585z M1737.376,789.295
	V439.755l-38.46,22.59c-62.73,36.85-117.551,48.13-162.95,33.53c-7.05-2.27-13.61-5.1-19.681-8.29c-2.52-1.33-4.59-2.94-6.97-4.39
	c-3.31-2.04-6.84-3.98-9.82-6.23c-2.76-2.04-5.029-4.24-7.5-6.35c-2.149-1.84-4.5-3.6-6.439-5.49c-2.73-2.63-5-5.26-7.35-7.86
	c-1.25-1.4-2.73-2.81-3.87-4.19c-2.58-3.08-4.7-5.97-6.771-8.8c-0.56-0.79-1.33-1.66-1.84-2.43c-2.29-3.29-4.18-6.27-5.76-8.9
	c-0.08-0.16-0.23-0.36-0.34-0.51c-3.261-5.46-4.92-9.06-5.07-9.42l-0.03-0.03l-5.54-12.83l-13.96-2.15
	c-244.75-37.77-364.01,64.75-397.36,100.56c-177.76-19.27-254.86-70.36-255.55-70.8l-18.88-13.09l-14.98,17.43
	c-39.79,46.24-85.63,69.77-117.1,81.36l-16.69,6.25v256.88c-125.13-208.97-62.19-434.81-9.29-557.62c0.44-0.97,1.66-3.83,5.7-4.39
	c1.6-0.23,5.58-0.3,8.39,3.17l1.63,1.99c14.17,16.87,36.32,24.17,57.94,18.86c21.97-5.34,38.69-22.31,43.61-44.26
	c2.1-9.23,4.42-18.65,6.69-27.46c9.21-35.47,26.67-65.25,50.53-86.08c53.49-46.81,112.7-40.73,148.03-30.5
	c-12.76,24.2-16.54,58.17-10.7,99.84c1.92,13.73,11.31,24.99,24.48,29.33c13.32,4.41,27.79,0.91,37.69-9.12
	c97.16-98.64,209.22-139.29,265.42-127.35c24.02,5.08,29.02,18.38,30.649,22.74c5.061,13.4,15.21,24.02,28.66,29.94
	c14.19,6.25,30.63,6.53,45.15,0.74c47.6-19.07,87.41-33.38,131.41-30.42c60.38,4.11,131.59,34.53,150.39,107.6
	c10.09,39.12,27.82,69.39,52.76,89.93c25.601,21.11,87.08,84.22,105.07,214.33C1808.275,629.635,1770.836,730.745,1737.376,789.295z
	 M1405.626,611.945c-98.511,0-178.65,80.17-178.65,178.65c0,98.49,80.14,178.649,178.65,178.649
	c98.51,0,178.649-80.159,178.649-178.649C1584.275,692.115,1504.135,611.945,1405.626,611.945z M1405.626,918.205
	c-70.36,0-127.61-57.25-127.61-127.609c0-70.36,57.25-127.6,127.61-127.6c70.359,0,127.609,57.24,127.609,127.6
	C1533.235,860.955,1475.985,918.205,1405.626,918.205z M1405.626,739.555c-28.19,0-51.04,22.85-51.04,51.04
	c0,28.189,22.85,51.04,51.04,51.04c28.189,0,51.04-22.851,51.04-51.04C1456.666,762.405,1433.815,739.555,1405.626,739.555z
	 M1175.935,1063.545c-70.36,0-127.61,57.239-127.61,127.609c0,70.36,57.25,127.601,127.61,127.601
	c70.36,0,127.61-57.24,127.61-127.601C1303.546,1120.785,1246.296,1063.545,1175.935,1063.545z M1175.935,1267.715
	c-42.21,0-76.56-34.351-76.56-76.561c0-42.22,34.35-76.569,76.56-76.569s76.56,34.35,76.56,76.569
	C1252.495,1233.365,1218.145,1267.715,1175.935,1267.715z M1124.895,790.595c0-98.48-80.14-178.65-178.65-178.65
	c-98.51,0-178.65,80.17-178.65,178.65c0,98.49,80.14,178.649,178.65,178.649C1044.755,969.245,1124.895,889.105,1124.895,790.595z
	 M946.245,918.205c-70.36,0-127.61-57.25-127.61-127.609c0-70.36,57.25-127.6,127.61-127.6s127.6,57.24,127.6,127.6
	C1073.845,860.955,1016.605,918.205,946.245,918.205z M946.245,611.945c-98.51,0-178.65,80.17-178.65,178.65
	c0,98.49,80.14,178.649,178.65,178.649c98.51,0,178.65-80.14,178.65-178.649C1124.895,692.115,1044.755,611.945,946.245,611.945z
	 M946.245,918.205c-70.36,0-127.61-57.25-127.61-127.609c0-70.36,57.25-127.6,127.61-127.6s127.6,57.24,127.6,127.6
	C1073.845,860.955,1016.605,918.205,946.245,918.205z M1175.935,1063.545c-70.36,0-127.61,57.239-127.61,127.609
	c0,70.36,57.25,127.601,127.61,127.601c70.36,0,127.61-57.24,127.61-127.601C1303.546,1120.785,1246.296,1063.545,1175.935,1063.545
	z M1175.935,1267.715c-42.21,0-76.56-34.351-76.56-76.561c0-42.22,34.35-76.569,76.56-76.569s76.56,34.35,76.56,76.569
	C1252.495,1233.365,1218.145,1267.715,1175.935,1267.715z M1405.626,739.555c-28.19,0-51.04,22.85-51.04,51.04
	c0,28.189,22.85,51.04,51.04,51.04c28.189,0,51.04-22.851,51.04-51.04C1456.666,762.405,1433.815,739.555,1405.626,739.555z
	 M1405.626,739.555c-28.19,0-51.04,22.85-51.04,51.04c0,28.189,22.85,51.04,51.04,51.04c28.189,0,51.04-22.851,51.04-51.04
	C1456.666,762.405,1433.815,739.555,1405.626,739.555z M1405.626,611.945c-98.511,0-178.65,80.17-178.65,178.65
	c0,98.49,80.14,178.649,178.65,178.649c98.51,0,178.649-80.159,178.649-178.649C1584.275,692.115,1504.135,611.945,1405.626,611.945
	z M1405.626,918.205c-70.36,0-127.61-57.25-127.61-127.609c0-70.36,57.25-127.6,127.61-127.6c70.359,0,127.609,57.24,127.609,127.6
	C1533.235,860.955,1475.985,918.205,1405.626,918.205z M1405.626,739.555c-28.19,0-51.04,22.85-51.04,51.04
	c0,28.189,22.85,51.04,51.04,51.04c28.189,0,51.04-22.851,51.04-51.04C1456.666,762.405,1433.815,739.555,1405.626,739.555z
	 M1405.626,739.555c-28.19,0-51.04,22.85-51.04,51.04c0,28.189,22.85,51.04,51.04,51.04c28.189,0,51.04-22.851,51.04-51.04
	C1456.666,762.405,1433.815,739.555,1405.626,739.555z M1405.626,739.555c-28.19,0-51.04,22.85-51.04,51.04
	c0,28.189,22.85,51.04,51.04,51.04c28.189,0,51.04-22.851,51.04-51.04C1456.666,762.405,1433.815,739.555,1405.626,739.555z
	 M1405.626,611.945c-98.511,0-178.65,80.17-178.65,178.65c0,98.49,80.14,178.649,178.65,178.649
	c98.51,0,178.649-80.159,178.649-178.649C1584.275,692.115,1504.135,611.945,1405.626,611.945z M1405.626,918.205
	c-70.36,0-127.61-57.25-127.61-127.609c0-70.36,57.25-127.6,127.61-127.6c70.359,0,127.609,57.24,127.609,127.6
	C1533.235,860.955,1475.985,918.205,1405.626,918.205z M1405.626,739.555c-28.19,0-51.04,22.85-51.04,51.04
	c0,28.189,22.85,51.04,51.04,51.04c28.189,0,51.04-22.851,51.04-51.04C1456.666,762.405,1433.815,739.555,1405.626,739.555z
	 M1405.626,739.555c-28.19,0-51.04,22.85-51.04,51.04c0,28.189,22.85,51.04,51.04,51.04c28.189,0,51.04-22.851,51.04-51.04
	C1456.666,762.405,1433.815,739.555,1405.626,739.555z M1405.626,739.555c-28.19,0-51.04,22.85-51.04,51.04
	c0,28.189,22.85,51.04,51.04,51.04c28.189,0,51.04-22.851,51.04-51.04C1456.666,762.405,1433.815,739.555,1405.626,739.555z
	 M1175.935,1063.545c-70.36,0-127.61,57.239-127.61,127.609c0,70.36,57.25,127.601,127.61,127.601
	c70.36,0,127.61-57.24,127.61-127.601C1303.546,1120.785,1246.296,1063.545,1175.935,1063.545z M1175.935,1267.715
	c-42.21,0-76.56-34.351-76.56-76.561c0-42.22,34.35-76.569,76.56-76.569s76.56,34.35,76.56,76.569
	C1252.495,1233.365,1218.145,1267.715,1175.935,1267.715z M946.245,611.945c-98.51,0-178.65,80.17-178.65,178.65
	c0,98.49,80.14,178.649,178.65,178.649c98.51,0,178.65-80.14,178.65-178.649C1124.895,692.115,1044.755,611.945,946.245,611.945z
	 M946.245,918.205c-70.36,0-127.61-57.25-127.61-127.609c0-70.36,57.25-127.6,127.61-127.6s127.6,57.24,127.6,127.6
	C1073.845,860.955,1016.605,918.205,946.245,918.205z M1405.626,739.555c-28.19,0-51.04,22.85-51.04,51.04
	c0,28.189,22.85,51.04,51.04,51.04c28.189,0,51.04-22.851,51.04-51.04C1456.666,762.405,1433.815,739.555,1405.626,739.555z
	 M1405.626,739.555c-28.19,0-51.04,22.85-51.04,51.04c0,28.189,22.85,51.04,51.04,51.04c28.189,0,51.04-22.851,51.04-51.04
	C1456.666,762.405,1433.815,739.555,1405.626,739.555z"/>
<path fill="#A18633" d="M1737.376,789.295V439.755l-38.46,22.59c-62.73,36.85-117.551,48.13-162.95,33.53
	c-7.05-2.27-13.61-5.1-19.681-8.29c-2.52-1.33-4.59-2.94-6.97-4.39c-3.31-2.04-6.84-3.98-9.82-6.23c-2.76-2.04-5.029-4.24-7.5-6.35
	c-2.149-1.84-4.5-3.6-6.439-5.49c-2.73-2.63-5-5.26-7.35-7.86c-1.25-1.4-2.73-2.81-3.87-4.19c-2.58-3.08-4.7-5.97-6.771-8.8
	c-0.56-0.79-1.33-1.66-1.84-2.43c-2.29-3.29-4.18-6.27-5.76-8.9c-0.08-0.16-0.23-0.36-0.34-0.51c-3.261-5.46-4.92-9.06-5.07-9.42
	l-0.03-0.03l-5.54-12.83l-13.96-2.15c-244.75-37.77-364.01,64.75-397.36,100.56c-177.76-19.27-254.86-70.36-255.55-70.8
	l-18.88-13.09l-14.98,17.43c-39.79,46.24-85.63,69.77-117.1,81.36l-16.69,6.25v256.88c-125.13-208.97-62.19-434.81-9.29-557.62
	c0.44-0.97,1.66-3.83,5.7-4.39c1.6-0.23,5.58-0.3,8.39,3.17l1.63,1.99c14.17,16.87,36.32,24.17,57.94,18.86
	c21.97-5.34,38.69-22.31,43.61-44.26c2.1-9.23,4.42-18.65,6.69-27.46c9.21-35.47,26.67-65.25,50.53-86.08
	c53.49-46.81,112.7-40.73,148.03-30.5c-12.76,24.2-16.54,58.17-10.7,99.84c1.92,13.73,11.31,24.99,24.48,29.33
	c13.32,4.41,27.79,0.91,37.69-9.12c97.16-98.64,209.22-139.29,265.42-127.35c24.02,5.08,29.02,18.38,30.649,22.74
	c5.061,13.4,15.21,24.02,28.66,29.94c14.19,6.25,30.63,6.53,45.15,0.74c47.6-19.07,87.41-33.38,131.41-30.42
	c60.38,4.11,131.59,34.53,150.39,107.6c10.09,39.12,27.82,69.39,52.76,89.93c25.601,21.11,87.08,84.22,105.07,214.33
	C1808.275,629.635,1770.836,730.745,1737.376,789.295z"/>
<path fill="#EAB420" d="M1482.185,1428.655v43.23c0,4.31-3.49,7.81-7.78,7.81H877.466c-4.29,0-7.78-3.5-7.78-7.81v-43.23H1482.185z"
	/>
<path fill="#EAB420" d="M1686.336,1301.025v-774.5c-61.051,28.03-116.99,33.97-166.78,17.69c-59.11-19.32-91.8-64.8-104.97-87.51
	c-248.73-33.64-344.74,92.51-345.71,93.81l-8.58,11.67l-14.42-1.41c-150.6-14.57-237.34-51.01-273.28-69.64
	c-36.47,37.33-75.67,60.05-107.08,73.62v736.27c0,42.21,34.35,76.561,76.56,76.561h867.72c42.21,0,76.56-34.351,76.56-76.561
	H1686.336z M767.595,790.595c0-98.48,80.14-178.65,178.65-178.65c98.51,0,178.65,80.17,178.65,178.65
	c0,98.51-80.14,178.649-178.65,178.649C847.735,969.245,767.595,889.085,767.595,790.595z M1175.935,1318.755
	c-70.36,0-127.61-57.24-127.61-127.601c0-70.37,57.25-127.609,127.61-127.609c70.36,0,127.61,57.239,127.61,127.609
	C1303.546,1261.515,1246.296,1318.755,1175.935,1318.755z M1405.626,969.245c-98.511,0-178.65-80.159-178.65-178.649
	c0-98.48,80.14-178.65,178.65-178.65c98.51,0,178.649,80.17,178.649,178.65C1584.275,889.085,1504.135,969.245,1405.626,969.245z"/>
<path fill="none" d="M1252.495,1191.155c0,42.21-34.35,76.561-76.56,76.561s-76.56-34.351-76.56-76.561
	c0-42.22,34.35-76.569,76.56-76.569S1252.495,1148.935,1252.495,1191.155z"/>
<path fill="none" d="M1405.626,662.995c-70.36,0-127.61,57.24-127.61,127.6c0,70.359,57.25,127.609,127.61,127.609
	c70.359,0,127.609-57.25,127.609-127.609C1533.235,720.235,1475.985,662.995,1405.626,662.995z M1405.626,841.635
	c-28.19,0-51.04-22.851-51.04-51.04c0-28.19,22.85-51.04,51.04-51.04c28.189,0,51.04,22.85,51.04,51.04
	C1456.666,818.785,1433.815,841.635,1405.626,841.635z"/>
</svg>
