<?xml version="1.0" encoding="utf-8"?>
<!-- Generator: Adobe Illustrator 16.0.0, SVG Export Plug-In . SVG Version: 6.00 Build 0)  -->
<!DOCTYPE svg PUBLIC "-//W3C//DTD SVG 1.1//EN" "http://www.w3.org/Graphics/SVG/1.1/DTD/svg11.dtd">
<svg version="1.1" id="Capa_1" xmlns="http://www.w3.org/2000/svg" xmlns:xlink="http://www.w3.org/1999/xlink" x="0px" y="0px"
	 width="2409.451px" height="1530.71px" viewBox="0 0 2409.451 1530.71" enable-background="new 0 0 2409.451 1530.71"
	 xml:space="preserve">
<path fill="#EAB420" d="M1760.682,1366.14c0,6.627-5.373,12-12,12H657.989c-6.627,0-12-5.373-12-12V473.644c0-6.627,5.373-12,12-12
	h1090.693c6.627,0,12,5.373,12,12V1366.14z"/>
<path fill="#EAB420" d="M1564.012,1498.973c0,6.627-5.372,12-12,12H871.01c-6.627,0-12-5.373-12-12v-98.236c0-6.627,5.373-12,12-12
	h681.002c6.628,0,12,5.373,12,12V1498.973z"/>
<path fill="#781006" d="M1828.105,278.335v168.06c0,6.63-5.38,12-12,12H593.165c-6.63,0-12-5.37-12-12v-168.06c0-6.62,5.37-12,12-12
	h1222.94C1822.725,266.335,1828.105,271.715,1828.105,278.335z"/>
<path d="M1760.685,241.825v12.51c0,6.63-5.38,12-12,12h-1090.7c-6.62,0-12-5.37-12-12v-12.36c-62.8,4.24-112.62,56.7-112.62,120.56
	c0,52.39,33.7,96.65,80.43,113.38c-0.25,180.09-0.78,813.08-0.78,813.08c0,74.061,60.23,134.301,134.27,134.301h81.42v45.489
	c0,34.13,27.77,61.931,61.93,61.931h628.1c34.13,0,61.9-27.771,61.9-61.931v-45.489h79.7c74.04,0,134.279-60.24,134.279-134.25
	c0,0,0.86-632.99,0.91-813.07c46.78-16.68,80.561-60.99,80.561-113.44C1876.086,297.735,1824.796,244.675,1760.685,241.825z
	 M1755.245,295.405c37,0,67.141,30.1,67.141,67.13c0,35.75-28.15,64.77-63.41,66.76c-99.36,0.51-1010.62,0.46-1108.8-0.02
	c-35.1-2.13-63.11-31.08-63.11-66.74c0-37.03,30.14-67.13,67.14-67.13H1755.245z M1740.905,1288.995
	c0,44.44-36.149,80.591-80.569,80.591h-913.05c-44.42,0-80.56-36.15-80.56-80.54c0,0,0.51-616.101,0.75-805.661h1074.34
	C1741.765,673.055,1740.905,1288.995,1740.905,1288.995z M1526.926,1468.785c0,4.54-3.681,8.221-8.19,8.221h-628.1
	c-4.51,0-8.22-3.681-8.22-8.221v-45.489h644.51V1468.785z"/>
<path d="M1483.369,625.792c-83.384,0-155.193,49.734-187.848,120.979c-22.505-23.337-53.925-37.973-88.836-37.973
	c-34.884,0-66.33,14.663-88.834,37.973c-32.655-71.271-104.465-120.979-187.848-120.979c-113.971,0-206.7,92.729-206.7,206.7
	c0,113.971,92.729,206.699,206.7,206.699s206.699-92.729,206.699-206.699c0-38.617,31.393-69.984,69.982-69.984
	c38.591,0,69.983,31.394,69.983,69.984c0,113.971,92.729,206.699,206.7,206.699c113.971,0,206.699-92.729,206.699-206.699
	C1690.068,718.521,1597.366,625.792,1483.369,625.792z M930.03,985.482c-84.377,0-152.99-68.641-152.99-152.99
	c0-84.351,68.64-152.991,152.99-152.991s152.99,68.64,152.99,152.991C1083.02,916.841,1014.381,985.482,930.03,985.482z
	 M1483.369,985.482c-84.378,0-152.991-68.641-152.991-152.99c0-84.351,68.641-152.991,152.991-152.991
	c84.35,0,152.99,68.64,152.99,152.991C1636.359,916.841,1567.746,985.482,1483.369,985.482z"/>
<path d="M1043.597,1127.892c-14.823,0-26.854,12.004-26.854,26.854c0,14.852,12.03,26.855,26.854,26.855
	c189.916,0,322.256,42.457,322.256,80.563c0,14.852,12.03,26.855,26.854,26.855c14.824,0,26.855-12.004,26.855-26.855
	C1419.562,1134.363,1106.384,1127.892,1043.597,1127.892z"/>
<path d="M926.136,569.236l161.127,80.563c3.867,1.906,7.949,2.819,11.978,2.819c9.855,0,19.335-5.424,24.062-14.851
	c6.633-13.266,1.262-29.405-12.004-36.038l-161.128-80.564c-13.319-6.605-29.405-1.234-36.038,12.005
	C907.499,546.49,912.87,562.604,926.136,569.236z"/>
<path d="M1314.131,652.646c4.028,0,8.137-0.913,11.978-2.82l161.127-80.563c13.267-6.633,18.638-22.772,12.004-36.038
	c-6.633-13.24-22.772-18.61-36.038-12.005l-161.128,80.564c-13.267,6.633-18.637,22.772-12.004,36.038
	C1294.796,647.222,1304.275,652.646,1314.131,652.646z"/>
<circle fill="#1D1D1B" cx="931.29" cy="832.493" r="86.631"/>
<circle fill="#1D1D1B" cx="1481.285" cy="832.493" r="86.631"/>
<circle fill="#FBFBFB" cx="928.29" cy="835.95" r="25.962"/>
<circle fill="#FBFBFB" cx="1479.12" cy="833.492" r="25.961"/>
<path fill="none" d="M963.035,0.005c-139.03,0-253.67,106.18-267.18,241.69h-41.65c-2.76,0-5.51,0.09-8.22,0.28V12.005
	c0-6.63,5.38-12,12-12H963.035z"/>
<path fill="none" d="M1760.685,12.005v229.82c-1.8-0.09-3.62-0.13-5.44-0.13h-41.649c-13.51-135.51-128.18-241.69-267.18-241.69
	h302.27C1755.305,0.005,1760.685,5.375,1760.685,12.005z"/>
<path d="M1755.245,241.695h-41.649c-13.51-135.51-128.18-241.69-267.18-241.69h-483.38c-139.03,0-253.67,106.18-267.18,241.69
	h-41.65c-2.76,0-5.51,0.09-8.22,0.28v12.36c0,6.63,5.38,12,12,12h1090.7c6.62,0,12-5.37,12-12v-12.51
	C1758.885,241.735,1757.065,241.695,1755.245,241.695z M750.055,241.695c13.29-105.81,103.63-187.99,212.98-187.99h483.38
	c109.35,0,199.689,82.18,212.979,187.99H750.055z"/>
<path fill="#781006" d="M1659.395,241.695h-909.34c13.29-105.81,103.63-187.99,212.98-187.99h483.38
	C1555.765,53.705,1646.105,135.885,1659.395,241.695z"/>
</svg>
