<?xml version="1.0" encoding="utf-8"?>
<!-- Generator: Adobe Illustrator 16.0.0, SVG Export Plug-In . SVG Version: 6.00 Build 0)  -->
<!DOCTYPE svg PUBLIC "-//W3C//DTD SVG 1.1//EN" "http://www.w3.org/Graphics/SVG/1.1/DTD/svg11.dtd">
<svg version="1.1" id="Capa_1" xmlns="http://www.w3.org/2000/svg" xmlns:xlink="http://www.w3.org/1999/xlink" x="0px" y="0px" width="200px" height="180px" 
 viewBox="562.5 -1 155 202" enable-background="new 562.5 -1 155 202" xml:space="preserve">
<path fill="#E9E9E0" d="M672.089,0H568.439c-2.887,0-5.227,2.339-5.227,6.878v189.55c0,1.231,2.34,3.571,5.227,3.571h143.12
	c2.887,0,5.227-2.34,5.227-3.571V46.35c0-2.486-0.332-3.286-0.918-3.875L674.311,0.918C673.722,0.332,672.921,0,672.089,0z"/>
<polygon fill="#D9D7CA" points="673.929,0.539 673.929,42.857 716.246,42.857 "/>
<path fill="#47D69C" d="M711.561,200H568.439c-2.887,0-5.227-2.34-5.227-5.225v-55.49h153.572v55.49
	C716.786,197.66,714.446,200,711.561,200z"/>
<text transform="matrix(0.9361 0 0 1 601.9971 189.4902)" fill="#FFFFFF" font-family="'MyriadPro-Regular'" font-size="58.0388">ICO</text>
<text transform="matrix(0.9361 0 0 1 601.9971 189.4902)" fill="none" stroke="#FFFFFF" stroke-miterlimit="10" font-family="'MyriadPro-Regular'" font-size="58.0388">ICO</text>
<path fill="#C8BDB8" d="M673.722,42.857v1.646c-10.968,3.457-19.652,12.079-23.222,23c-2.453-1.982-5.528-3.218-8.921-3.218
	c-6.641,0-12.184,4.571-13.779,10.714h-11.221v-7.143H595.15v21.429h21.429v-7.144h10.432c-1.199,9.511-7.089,17.778-15.675,22.011
	c-2.386-4.568-7.114-7.726-12.614-7.726c-7.879,0-14.285,6.406-14.285,14.285S590.843,125,598.722,125
	c7.664,0,13.887-6.079,14.223-13.661c9.48-4.11,16.596-12.096,19.729-21.689c2.449,1.976,5.521,3.207,8.907,3.207
	c6.639,0,12.182-4.57,13.778-10.714h11.222v7.144h21.428v-21.43H666.58V75h-10.47c1.354-10.782,8.729-19.693,18.649-23.279
	c2.114,5.261,7.239,8.993,13.246,8.993c7.879,0,14.286-6.407,14.286-14.286v-3.571H673.722z M609.436,82.143h-7.143V75h7.143V82.143
	z M598.722,117.855c-3.938,0-7.143-3.203-7.143-7.143s3.203-7.143,7.143-7.143c3.94,0,7.144,3.203,7.144,7.143
	S602.661,117.855,598.722,117.855z M673.722,75h7.144v7.143h-7.144V75z M641.579,85.714c-3.939,0-7.145-3.203-7.145-7.143
	s3.204-7.143,7.145-7.143c3.938,0,7.143,3.204,7.143,7.143S645.518,85.714,641.579,85.714z M688.007,53.571
	c-2.582,0-4.832-1.389-6.085-3.443c0.828-0.075,1.664-0.128,2.514-0.128h9.755C692.957,52.132,690.646,53.571,688.007,53.571z"/>
</svg>
