<?xml version="1.0" encoding="utf-8"?>
<!-- Generator: Adobe Illustrator 16.0.0, SVG Export Plug-In . SVG Version: 6.00 Build 0)  -->
<!DOCTYPE svg PUBLIC "-//W3C//DTD SVG 1.1//EN" "http://www.w3.org/Graphics/SVG/1.1/DTD/svg11.dtd">
<svg version="1.1" id="Capa_1" xmlns="http://www.w3.org/2000/svg" xmlns:xlink="http://www.w3.org/1999/xlink" x="0px" y="0px" 
	 width="200px" height="180px"  viewBox="562.5 -1 155 202" enable-background="new 562.5 -1 155 202" xml:space="preserve">
<g>
	<path fill="#E9E9E0" d="M672.089,0H568.439c-2.886,0-5.226,2.339-5.226,6.878v189.55c0,1.231,2.34,3.571,5.226,3.571h143.121
		c2.886,0,5.226-2.34,5.226-3.571V46.35c0-2.486-0.332-3.286-0.918-3.875L674.311,0.918C673.722,0.332,672.921,0,672.089,0z"/>
	<polygon fill="#D9D7CA" points="673.929,0.539 673.929,42.857 716.246,42.857 	"/>
	<circle fill="#F3D55B" cx="607.61" cy="51.539" r="16.318"/>
	<polygon fill="#26B99A" points="563.214,139.285 602.5,139.285 716.786,139.285 716.786,100 681.071,66.071 643.571,107.143 
		623.989,87.561 	"/>
	<path fill="#14A085" d="M711.561,200H568.439c-2.886,0-5.226-2.34-5.226-5.225v-55.49h153.572v55.49
		C716.786,197.66,714.446,200,711.561,200z"/>
	<g>
		<path fill="#FFFFFF" d="M616.521,152.321v28.028c0,1.693-0.311,3.118-0.929,4.271c-0.618,1.154-1.45,2.082-2.489,2.782
			c-1.043,0.7-2.239,1.189-3.589,1.464c-1.354,0.279-2.743,0.418-4.176,0.418c-0.718,0-1.557-0.074-2.514-0.221
			c-0.961-0.146-1.954-0.371-2.979-0.682c-1.025-0.312-2.011-0.662-2.954-1.051c-0.946-0.389-1.742-0.828-2.393-1.318l2.489-3.953
			c0.325,0.225,0.789,0.465,1.393,0.707c0.601,0.243,1.261,0.472,1.979,0.683c0.715,0.214,1.465,0.396,2.247,0.561
			s1.514,0.243,2.196,0.243c1.725,0,3.1-0.336,4.125-1c1.024-0.664,1.567-1.801,1.636-3.393v-27.54H616.521z"/>
		<path fill="#FFFFFF" d="M631.121,189.043h-5.86v-35.989h10.35c1.529,0,3.043,0.243,4.54,0.731c1.496,0.49,2.839,1.223,4.028,2.197
			s2.149,2.156,2.882,3.539s1.101,2.936,1.101,4.664c0,1.825-0.312,3.475-0.929,4.957c-0.618,1.482-1.482,2.729-2.59,3.736
			c-1.106,1.007-2.442,1.789-4.003,2.343c-1.562,0.554-3.29,0.828-5.176,0.828h-4.346v12.993H631.121z M631.121,157.5v14.258h5.372
			c0.714,0,1.421-0.122,2.125-0.369c0.699-0.242,1.343-0.643,1.929-1.195c0.585-0.555,1.057-1.326,1.414-2.318
			c0.356-0.992,0.535-2.222,0.535-3.686c0-0.586-0.082-1.265-0.242-2.025c-0.165-0.764-0.497-1.496-1-2.196
			c-0.508-0.7-1.215-1.286-2.125-1.757c-0.915-0.475-2.118-0.711-3.614-0.711H631.121z"/>
		<path fill="#FFFFFF" d="M681.071,170.486V184.4c-0.75,0.945-1.586,1.714-2.514,2.317c-0.929,0.604-1.904,1.101-2.929,1.489
			c-1.025,0.389-2.082,0.668-3.175,0.828c-1.094,0.172-2.172,0.25-3.247,0.25c-2.149,0-4.125-0.389-5.932-1.171
			c-1.808-0.782-3.386-1.936-4.736-3.468c-1.35-1.532-2.41-3.45-3.175-5.761s-1.146-4.981-1.146-8.007s0.382-5.689,1.146-7.982
			c0.765-2.297,1.821-4.207,3.175-5.736c1.351-1.531,2.936-2.692,4.761-3.492c1.821-0.801,3.793-1.196,5.907-1.196
			c1.954,0,3.775,0.325,5.468,0.975c1.693,0.653,3.204,1.629,4.539,2.929l-4.053,3.614c-0.782-0.946-1.679-1.628-2.687-2.05
			c-1.011-0.422-2.05-0.636-3.125-0.636c-1.203,0-2.354,0.225-3.442,0.683c-1.093,0.457-2.068,1.229-2.929,2.317
			c-0.864,1.093-1.539,2.496-2.025,4.225c-0.485,1.729-0.75,3.839-0.781,6.347c0.031,2.443,0.285,4.557,0.757,6.346
			c0.472,1.79,1.121,3.254,1.953,4.394s1.775,1.985,2.832,2.539c1.058,0.554,2.172,0.829,3.347,0.829
			c0.357,0,0.836-0.025,1.439-0.075c0.6-0.05,1.204-0.129,1.808-0.243c0.6-0.114,1.178-0.268,1.731-0.464s0.961-0.472,1.222-0.829
			v-8.885h-6.104v-4.004h11.914V170.486z"/>
	</g>
</g>
</svg>
