<?xml version="1.0" encoding="utf-8"?>
<!-- Generator: Adobe Illustrator 16.0.0, SVG Export Plug-In . SVG Version: 6.00 Build 0)  -->
<!DOCTYPE svg PUBLIC "-//W3C//DTD SVG 1.1//EN" "http://www.w3.org/Graphics/SVG/1.1/DTD/svg11.dtd">
<svg version="1.1" id="Capa_1" xmlns="http://www.w3.org/2000/svg" xmlns:xlink="http://www.w3.org/1999/xlink" x="0px" y="0px"
	 width="200px" height="180px"  viewBox="562.5 -1.5 155 203" enable-background="new 562.5 -1.5 155 203" xml:space="preserve">
<path fill="#E9E9E0" d="M672.089,0H568.439c-2.887,0-5.227,2.339-5.227,6.878v189.55c0,1.231,2.34,3.571,5.227,3.571h143.12
	c2.887,0,5.227-2.34,5.227-3.571V46.35c0-2.486-0.332-3.286-0.918-3.875L674.311,0.918C673.722,0.332,672.921,0,672.089,0z"/>
<polygon fill="#D9D7CA" points="673.929,0.539 673.929,42.857 716.246,42.857 "/>
<path fill="#9539FF" d="M711.561,200H568.439c-2.887,0-5.227-2.34-5.227-5.225v-55.49h153.572v55.49
	C716.786,197.66,714.446,200,711.561,200z"/>
<text transform="matrix(0.9361 0 0 1 598.9971 189.4902)" fill="#FFFFFF" font-family="'MyriadPro-Regular'" font-size="58.0388">PHP</text>
<text transform="matrix(0.9361 0 0 1 598.9971 189.4902)" fill="none" stroke="#FFFFFF" stroke-miterlimit="10" font-family="'MyriadPro-Regular'" font-size="58.0388">PHP</text>
<text transform="matrix(1 0 0 1 605.9995 53.7041)" fill="#BCBCBC" font-family="'MyriadPro-BoldCond'" font-size="53.5148">&lt;? </text>
<text transform="matrix(1 0 0 1 605.9995 117.9219)" fill="#BCBCBC" font-family="'MyriadPro-BoldCond'" font-size="53.5148">  &gt;</text>
</svg>
