<?xml version="1.0" encoding="utf-8"?>
<!-- Generator: Adobe Illustrator 16.0.0, SVG Export Plug-In . SVG Version: 6.00 Build 0)  -->
<!DOCTYPE svg PUBLIC "-//W3C//DTD SVG 1.1//EN" "http://www.w3.org/Graphics/SVG/1.1/DTD/svg11.dtd">
<svg version="1.1" id="Capa_1" xmlns="http://www.w3.org/2000/svg" xmlns:xlink="http://www.w3.org/1999/xlink" x="0px" y="0px"
	 width="200px" height="180px"  viewBox="562.5 -1.5 155 203" enable-background="new 562.5 -1.5 155 203" xml:space="preserve">
<g>
	<path fill="#E9E9E0" d="M672.089,0H568.439c-2.886,0-5.226,2.339-5.226,6.878v189.55c0,1.231,2.34,3.571,5.226,3.571h143.121
		c2.886,0,5.226-2.34,5.226-3.571V46.35c0-2.486-0.332-3.286-0.918-3.875L674.311,0.918C673.722,0.332,672.921,0,672.089,0z"/>
	<polygon fill="#D9D7CA" points="673.929,0.539 673.929,42.857 716.246,42.857 	"/>
	<path fill="#E57E25" d="M711.561,200H568.439c-2.886,0-5.226-2.34-5.226-5.225v-55.49h153.572v55.49
		C716.786,197.66,714.446,200,711.561,200z"/>
	<g>
		<path fill="#FFFFFF" d="M616.64,179.422c0,1.299-0.269,2.564-0.808,3.785c-0.539,1.222-1.293,2.297-2.271,3.222
			s-2.179,1.667-3.614,2.222c-1.436,0.553-3.057,0.828-4.882,0.828c-0.782,0-1.586-0.043-2.418-0.121s-1.668-0.222-2.515-0.414
			c-0.846-0.193-1.653-0.465-2.418-0.808c-0.764-0.343-1.421-0.757-1.979-1.247l1.025-4.199c0.457,0.261,1.032,0.514,1.732,0.757
			c0.699,0.243,1.421,0.472,2.171,0.683s1.497,0.382,2.247,0.514c0.75,0.133,1.446,0.197,2.1,0.197c1.985,0,3.507-0.465,4.564-1.394
			c1.057-0.929,1.586-2.304,1.586-4.125c0-1.106-0.372-2.05-1.122-2.832s-1.686-1.489-2.807-2.125
			c-1.122-0.636-2.336-1.268-3.64-1.903s-2.521-1.386-3.66-2.246c-1.14-0.861-2.083-1.879-2.833-3.051s-1.121-2.635-1.121-4.393
			c0-1.593,0.293-3.011,0.879-4.246c0.585-1.236,1.375-2.289,2.367-3.15c0.993-0.861,2.15-1.521,3.468-1.979
			c1.318-0.457,2.711-0.682,4.176-0.682c1.496,0,3.011,0.139,4.539,0.414s2.765,0.725,3.711,1.343
			c-0.196,0.421-0.422,0.886-0.683,1.393s-0.507,0.976-0.732,1.415c-0.225,0.438-0.421,0.807-0.585,1.1
			c-0.165,0.293-0.261,0.457-0.293,0.488c-0.196-0.096-0.414-0.225-0.661-0.389c-0.246-0.164-0.593-0.324-1.05-0.489
			c-0.457-0.164-1.057-0.274-1.807-0.343s-1.711-0.051-2.883,0.05c-0.653,0.067-1.268,0.25-1.857,0.562
			c-0.589,0.311-1.106,0.688-1.563,1.146c-0.457,0.458-0.814,0.968-1.075,1.54c-0.261,0.57-0.39,1.117-0.39,1.635
			c0,1.301,0.372,2.351,1.122,3.15s1.678,1.496,2.781,2.1c1.104,0.604,2.312,1.189,3.615,1.758c1.303,0.568,2.514,1.264,3.639,2.074
			c1.125,0.812,2.058,1.832,2.808,3.051C616.254,175.929,616.64,177.5,616.64,179.422z"/>
		<path fill="#FFFFFF" d="M632.36,189.482L621.179,153.3h6.689l8.35,31.054l8.84-31.054h6.639l-11.718,36.183H632.36z"/>
		<path fill="#FFFFFF" d="M685.243,170.732v13.914c-0.75,0.946-1.586,1.715-2.515,2.318s-1.903,1.1-2.929,1.488
			c-1.024,0.39-2.082,0.668-3.175,0.832c-1.093,0.165-2.172,0.244-3.246,0.244c-2.15,0-4.125-0.391-5.933-1.172
			c-1.807-0.782-3.386-1.936-4.735-3.469c-1.351-1.531-2.411-3.449-3.175-5.76c-0.765-2.311-1.146-4.982-1.146-8.008
			c0-3.024,0.382-5.689,1.146-7.982c0.764-2.293,1.824-4.207,3.175-5.734c1.35-1.529,2.936-2.693,4.761-3.494
			c1.825-0.799,3.793-1.195,5.907-1.195c1.953,0,3.778,0.324,5.468,0.975s3.203,1.629,4.539,2.928l-4.054,3.615
			c-0.782-0.947-1.679-1.629-2.686-2.051c-1.007-0.421-2.05-0.635-3.125-0.635c-1.204,0-2.35,0.225-3.443,0.682
			c-1.093,0.457-2.067,1.229-2.928,2.318c-0.861,1.089-1.54,2.496-2.025,4.225s-0.75,3.84-0.782,6.346
			c0.032,2.443,0.286,4.558,0.757,6.348c0.472,1.789,1.122,3.253,1.954,4.393c0.832,1.139,1.775,1.985,2.832,2.539
			s2.172,0.828,3.347,0.828c0.36,0,0.835-0.024,1.439-0.074c0.604-0.051,1.203-0.129,1.807-0.243s1.179-0.269,1.732-0.464
			c0.554-0.197,0.961-0.473,1.222-0.829v-8.886h-6.104v-4.004h11.915V170.732z"/>
	</g>
	<path fill="#C8BDB8" d="M702.5,78.571V57.143h-21.429v7.143h-21.429V50h-35.714v14.286H602.5v-7.143h-21.429v21.428H602.5v-7.143
		h12.672c-16.308,9.414-26.958,27.1-26.958,46.429c0,1.971,1.597,3.571,3.572,3.571c1.975,0,3.571-1.601,3.571-3.571
		c0-18.736,11.532-35.711,28.571-42.839v10.696h35.714V75.018c17.04,7.132,28.571,24.107,28.571,42.839
		c0,1.971,1.597,3.571,3.572,3.571c1.975,0,3.571-1.601,3.571-3.571c0-19.329-10.65-37.015-26.957-46.429h12.671v7.143H702.5z
		 M595.357,71.429h-7.144v-7.143h7.144V71.429z M652.5,78.571h-21.429V65.164v-8.021H652.5v8.021V78.571z M688.214,64.286h7.144
		v7.143h-7.144V64.286z"/>
</g>
</svg>
